<!-- Generator: Adobe Illustrator 24.1.1, SVG Export Plug-In  -->
<svg version="1.1" xmlns="http://www.w3.org/2000/svg" xmlns:xlink="http://www.w3.org/1999/xlink" x="0px" y="0px" width="588.2px"
	 height="806.9px" viewBox="0 0 588.2 806.9" style="enable-background:new 0 0 588.2 806.9;" xml:space="preserve">
<style type="text/css">
	.st0{fill:#87362B;}
	.st1{fill:#1D3947;}
	.st2{fill:#483823;}
	.st3{fill:#CCB484;}
</style>
<defs>
</defs>
<path class="st0" d="M83.1,80.2L0,118.1c0,0,21.2,104.3,27.1,108.2c5.9,4,66.1,73,66.1,73L19.8,347l52,33.3l119.8,2.9l76.3-19
	L252,268.8l-50.3-30.5l70.9-53.6l-41-146.3L158.8,0L83.1,80.2z"/>
<path class="st1" d="M89.5,167l46-40.4c0,0,24.8-26.9,28.6-26.6c3.8,0.3,59.5,69.6,59.5,69.6l-41.7,49l-26,26l12.8,53.4l58.2,33.5
	l-83.5,25.3c0,0-30.7-54.4-29.1-54.4c1.6,0-33.5-65.5-33.5-65.5l-34.8-33.2L89.5,167z"/>
<polygon class="st2" points="27.2,155.1 65.8,135.5 79.1,151.5 48.1,174.7 "/>
<polygon class="st3" points="88.6,146.2 79.1,112.7 160.1,26.7 251.1,151.5 176.5,94.9 148.7,77.2 124,122.8 "/>
<path class="st1" d="M387.9,80.2l-83.1,37.9c0,0,21.2,104.3,27.1,108.2c5.9,4,66.1,73,66.1,73L324.6,347l52,33.3l119.8,2.9l76.3-19
	l-15.8-95.3l-50.3-30.5l70.9-53.6l-41-146.3L463.6,0L387.9,80.2z"/>
<path class="st3" d="M394.4,167l46-40.4c0,0,24.8-26.9,28.6-26.6s59.5,69.6,59.5,69.6l-41.7,49l-26,26l12.8,53.4l58.2,33.5
	l-83.5,25.3c0,0-30.7-54.4-29.1-54.4c1.6,0-33.5-65.5-33.5-65.5l-34.8-33.2L394.4,167z"/>
<polygon class="st0" points="332.1,155.1 370.6,135.5 383.9,151.5 352.9,174.7 "/>
<polygon class="st2" points="393.4,146.2 383.9,112.7 464.9,26.7 556,151.5 481.4,94.9 453.5,77.2 428.8,122.8 "/>
<path class="st3" d="M83.1,504L0,541.9c0,0,21.2,104.3,27.1,108.2s66.1,73,66.1,73l-73.5,47.7l52,33.3l119.8,2.9l76.3-19L252,692.6
	l-50.3-30.5l70.9-53.6l-41-146.3l-72.9-38.5L83.1,504z"/>
<path class="st2" d="M89.5,590.7l46-40.4c0,0,24.8-26.9,28.6-26.6c3.8,0.3,59.5,69.6,59.5,69.6l-41.7,49l-26,26l12.8,53.4l58.2,33.5
	l-83.5,25.3c0,0-30.7-54.4-29.1-54.4c1.6,0-33.5-65.5-33.5-65.5l-34.8-33.2L89.5,590.7z"/>
<polygon class="st1" points="27.2,578.8 65.8,559.3 79.1,575.2 48.1,598.5 "/>
<polygon class="st0" points="88.6,570 79.1,536.5 160.1,450.5 251.1,575.2 176.5,518.7 148.7,501 124,546.6 "/>
<path class="st2" d="M398.6,504l-83.1,37.9c0,0,21.2,104.3,27.1,108.2s66.1,73,66.1,73l-73.5,47.7l52,33.3l119.8,2.9l76.3-19
	l-15.8-95.3l-50.3-30.5l70.9-53.6l-41-146.3l-72.9-38.5L398.6,504z"/>
<path class="st0" d="M405.1,590.7l46-40.4c0,0,24.8-26.9,28.6-26.6c3.8,0.3,59.5,69.6,59.5,69.6l-41.7,49l-26,26l12.8,53.4
	l58.2,33.5l-83.5,25.3c0,0-30.7-54.4-29.1-54.4s-33.5-65.5-33.5-65.5l-34.8-33.2L405.1,590.7z"/>
<polygon class="st3" points="342.8,578.8 381.4,559.3 394.7,575.2 363.7,598.5 "/>
<polygon class="st1" points="404.1,570 394.7,536.5 475.6,450.5 566.7,575.2 492.1,518.7 464.2,501 439.6,546.6 "/>
</svg>
