<svg version="1.1" xmlns="http://www.w3.org/2000/svg" xmlns:xlink="http://www.w3.org/1999/xlink" x="0px" y="0px" width="272.7px"
	 height="383.1px" viewBox="0 0 272.7 383.1" style="enable-background:new 0 0 272.7 383.1;" xml:space="preserve">
<style type="text/css">
	.st0{fill:#87362B;}
	.st1{fill:#1D3947;}
	.st2{fill:#483823;}
	.st3{fill:#CCB484;}
</style>
<defs>
</defs>
<path class="st0" d="M83.1,80.2L0,118.1c0,0,21.2,104.3,27.1,108.2c5.9,4,66.1,73,66.1,73L19.8,347l52,33.3l119.8,2.9l76.3-19
	L252,268.8l-50.3-30.5l70.9-53.6l-41-146.3L158.8,0L83.1,80.2z"/>
<path class="st1" d="M89.5,167l46-40.4c0,0,24.8-26.9,28.6-26.6c3.8,0.3,59.5,69.6,59.5,69.6l-41.7,49l-26,26l12.8,53.4l58.2,33.5
	l-83.5,25.3c0,0-30.7-54.4-29.1-54.4c1.6,0-33.5-65.5-33.5-65.5l-34.8-33.2L89.5,167z"/>
<polygon class="st2" points="27.2,155.1 65.8,135.5 79.1,151.5 48.1,174.7 "/>
<polygon class="st3" points="88.6,146.2 79.1,112.7 160.1,26.7 251.1,151.5 176.5,94.9 148.7,77.2 124,122.8 "/>
</svg>
