<!-- Generator: Adobe Illustrator 24.1.1, SVG Export Plug-In  -->
<svg version="1.1" xmlns="http://www.w3.org/2000/svg" xmlns:xlink="http://www.w3.org/1999/xlink" x="0px" y="0px"
	 width="3898.6px" height="2235.6px" viewBox="0 0 3898.6 2235.6" style="enable-background:new 0 0 3898.6 2235.6;"
	 xml:space="preserve">
<style type="text/css">
	.st0{fill:#E97567;}
	.st1{fill:#8BBECB;}
	.st2{fill:#F6DC8B;}
	.st3{fill:#B78E60;}
	.st4{fill:#A24847;}
	.st5{fill:#BD5B54;}
	.st6{fill:#C16A57;}
	.st7{fill:#87362B;}
	.st8{fill:#015271;}
	.st9{fill:#6BA3BE;}
	.st10{fill:#1D3947;}
	.st11{fill:#58889C;}
	.st12{fill:#F4E19F;}
	.st13{fill:#F6F0E2;}
	.st14{fill:#CCB484;}
	.st15{fill:#E8D593;}
	.st16{fill:#AA8B5C;}
	.st17{fill:#856038;}
	.st18{fill:#6D583B;}
	.st19{fill:#483823;}
	.st20{fill:none;stroke:#000000;stroke-miterlimit:10;}
	.st21{fill:none;stroke:#000000;stroke-width:1.0757;stroke-miterlimit:10;}
</style>
<defs>
</defs>
<g>
	<g>
		<g>
			<path class="st0" d="M3760.9,1280.9c-0.3-0.4-2.6,1.7,0.1-2.1c4.4-6,8.7-11,13-16.1c1.1-1.3,2.2-2.5,3.3-3.8
				c0.2-0.2,0.2-0.2,0.2-0.2l0,0l0.1,0l0.1,0c0.2-0.1,0.2-0.1,0.3-0.5c0-0.4,0-0.9,0-1.4c0.4-0.2,0.7-0.3,0.8,0
				c0.1,0.1,0.1,0.4,0.1,0.7c0,0.1-0.1,0.3-0.2,0.5c-0.1,0.2-0.2,0.3-0.3,0.5l0,0c0,0.1,0,0.2,0,0.3c0,0.1,0,0.1,0,0.2l0,0.1l0,0.1
				c0,0,0,0,0,0.1l-1.2,3.4c-0.4,1.2-0.8,2.4-1.3,3.6c-0.9,2.4-1.8,4.9-2.8,7.3c-1.9,4.9-3.9,9.7-5.9,14.7c0.5-0.4,0.8-0.6,0.1,1.5
				c-3.4,8.5-8.8,20.2-13.7,32.9c-0.7,1.9-1.3,3.8-1.9,5.7c-0.4,1.5-0.2,2-0.1,2.3c-1.1,2.9-1.9,5.7-2.8,8.4c-0.2,0.7-0.4,1.3-0.7,2
				c-0.1,0.2-0.1,0.3-0.2,0.5l-0.2,0.8c-0.1,0.5-0.3,1.1-0.4,1.6c-0.4,2.1-0.6,4-0.6,5.9c0,0.8,0.1,1.6,0.2,2.4
				c0.1,0.8,0.2,1.6,0.4,2.5c0.1,0.8,0.4,1.8,0.7,2.7c0.4,1,0.6,1.9,1.2,3l0.4,0.8l0.2,0.4l0.3,0.4c0.4,0.6,0.8,1.1,1.2,1.7
				c0.5,0.6,1.1,1.2,1.7,1.8c0.2,0.1,0.3,0.3,0.5,0.4l0.6,0.4c0.4,0.3,0.8,0.5,1.2,0.8c0.8,0.5,1.7,0.9,2.6,1.3
				c0.5,0.2,0.9,0.3,1.4,0.5c0.5,0.1,0.9,0.2,1.4,0.3c2,0.3,3.6,0.1,5.3-0.1l4.7-0.7l2.3-4.2c11.7-21.2,23.6-42.7,35.7-64.8
				c3-5.5,6.1-11.1,9.2-16.7c0.7-1.4,1.5-2.7,2.3-4.1l0.8-1.7c0.6-1.2,1.2-2.4,1.8-3.6c1.4-2.8,2.8-5.5,4.3-8.3
				c0.4-0.8,0.8-1.6,1.3-2.2c0.5-0.7,1.3-1.4,2.1-1.3c0.1,0,0.2,0,0.3,0l0.1,0.2l0.2,0.5c0.1,0.3,0.2,0.6,0.3,1
				c0.2,0.7,0.3,1.3,0.5,2.1c0.5,2.3,0.6,5.1,0.5,8.2c-0.1,1.6-0.2,3.2-0.4,5c-0.1,0.9-0.2,1.8-0.4,2.7l-0.2,1.4l-0.4,2.3
				c-2.4,14.8-5.2,29.6-8.7,43.7c-4.5,17.9-11.5,39.7-17.9,57.8l7.3,2.9c1.5-3,2.7-5.8,4.1-8.4c-2,0.8,2.3-10.4,6.8-20.6
				c4.4-10.2,9-19.6,5.1-15.9c3.7-6,8.4-13.5,12.4-19.5c2-3,3.8-5.7,5-7.6c1.3-2,2.1-3.3,2.1-3.6c0-1.6,0.6-4.1,2.7-8.5
				c0.1-0.1,0.1-0.3,0.2-0.4c0.1-0.2,0.2-0.4,0.3-0.6c0.3-0.4,0.5-0.8,0.8-1.3c0.6-0.9,1.1-1.8,1.8-2.8c1.3-2,2.8-4.3,4.5-6.8
				c1.8-2.5,3.7-5.3,6-8.4c2.3-3.1,4.9-6.5,7.7-10.3c0.1,0.1,0.1,0.1,0.2,0.3l0.2,0.4c0.1,0.2,0.3,0.5,0.4,0.8
				c0.3,0.5,0.5,1,0.8,1.6c0.5,1.1,1.1,2.2,1.7,3.3c1.1,2.3,2.3,4.7,3.6,7.2c2.6,5,5.3,11,8.1,17.8c0.5,1.3,1,2.6,1.5,3.9
				c0.3,0.9,0.7,1.9,1,2.9c0.7,2,1.4,4.1,2,6.2c1.3,4.2,2.5,8.6,3.4,12.7c2,8.2,3.2,15.2,3.9,17.8c0.6,2,0.7,1.8,0.7,0.5
				c0-1.3-0.3-3.8-0.6-6.2c-0.6-4.9-1.4-9.8,0-5.8c-2-9-4.5-17.8-7.4-26.4c-0.4-1.1-0.7-2.2-1.1-3.2l-1-2.8c-0.4-1-0.8-2-1.2-3
				l-2.4-6c-0.8-2-1.7-3.9-2.5-5.8c-3.4-7.6-6.9-15-10.4-22.8c-6,7.3-12,14.5-17.9,21.7c-2.9,3.7-5.9,7.5-8.8,11.2l-4.5,6.1
				c-5.8,7.9-11.3,16-16.5,24.3c-10.4,16.5-19.7,33.7-27.9,51.4l23.7,9.5c7.7-22.8,14.5-45.9,20.5-69.3c3-11.8,5.7-23.5,8.2-35.5
				l0.3-1.6l0.4-2.2l0.8-4.4c0.3-1.5,0.5-2.9,0.7-4.3c0.2-1.4,0.5-2.9,0.6-4.3l0.5-4.2l0.3-4.1c0-0.7,0.1-1.4,0.1-2l0-1.9
				c0-1.3,0.1-2.6,0-3.8c-0.1-4.9-0.6-9.2-1.2-13.2c-0.8-3.8-1.6-7.5-2.4-11.4c-1.5-0.5-2.9-1-4.4-1.5c-0.7-0.2-1.4-0.5-2.1-0.7
				l-0.1,0l0,0c0,0,0,0-0.1,0l-0.1,0l-0.5-0.1l-0.9-0.3c-0.6-0.2-1.2-0.2-1.7-0.3c-1-0.1-2,0-2.8,0.1c-0.4,0.1-0.8,0.1-1.2,0.2
				c-0.4,0.1-0.8,0.3-1.3,0.4c-0.2,0.1-0.4,0.1-0.7,0.2c-0.3,0.1-0.6,0.2-0.8,0.4c-0.3,0.1-0.6,0.2-0.9,0.4c-0.3,0.1-0.7,0.4-1,0.5
				c-1.4,0.7-3.1,1.8-5.2,3.9c-1,1-2.1,2.4-3.3,4.1c-0.6,0.9-1.1,1.9-1.7,2.9c-0.6,1-1.2,2-1.8,3.1c-2.4,4.1-4.9,8.4-7.5,12.9
				c-3.8,6.6-7.9,13.7-12.3,21.3c-12.3,21.4-27.7,48.1-44.1,76.3l8.5-0.2c0.1,0.4,0.2,0.9,0.1,1.4c0,0.1,0,0.2,0,0.3
				c0,0.1,0,0.1,0,0.2l0,0.1c0,0,0,0,0,0c0,0,0,0,0,0s0,0,0,0c0-0.1,0.1-0.1,0.1-0.2c0.1-0.1,0.1-0.2,0.2-0.3c0,0,0.1-0.1,0.2-0.2
				c0.1-0.1,0.1-0.2,0.2-0.2c0.2-0.2,0.3-0.3,0.5-0.4c0.2-0.2,0.5-0.4,0.7-0.6c0.1-0.1,0.3-0.2,0.4-0.2l0.2-0.1l0.2-0.1
				c0.3-0.2,0.6-0.4,1-0.5c0.6-0.2,1.4-0.6,2.1-0.8l0.1,0l0,0l0,0c0,0,0,0,0,0c0,0,0-0.1,0-0.1c-0.1-0.2-0.1-0.8-0.1-1.5
				c0-0.6,0.1-1.3,0.2-1.6c0.8-2.6,1.6-5.2,2.5-7.8c1-2.7,1.8-5.4,2.9-8.1c4-10.8,8.6-21.6,13.2-32.4c2.3-5.4,4.6-10.9,6.8-16.3
				c1.1-2.7,2.2-5.5,3.2-8.2c0.5-1.4,1-2.7,1.5-4.1c0.5-1.4,1-2.8,1.5-4.2c0.4-1.2,0.8-2.4,1.2-3.6c0.4-1.2,0.7-2.4,1.1-3.7
				c0.7-2.4,1.5-4.9,2.2-7.3l0.5-1.8c0.2-0.6,0.4-1.2,0.5-1.8c0.3-1.1,0.5-2.3,0.8-3.4c0.5-2.3,1-4.5,1.5-6.8
				c0.6-2.3,0.8-4.3,1.1-6.3c0.3-2,0.6-4.1,0.9-6.1c0.6-4,1.2-8,1.7-12l-1.1-0.3l-0.9-0.3c-0.6-0.2-1.2-0.4-1.8-0.6
				s-1.2-0.4-1.8-0.6l-0.4-0.1l-0.1,0l-0.1,0l-0.2,0l-0.5,0c-0.6-0.1-1.2-0.1-1.8-0.2c-1.2-0.1-2.2-0.2-3.2-0.2
				c-1-0.1-1.9-0.1-2.9,0c-1.8,0.1-3.5,0.4-5,0.9c-1.6,0.5-3.1,1.1-4.6,1.9c-0.4,0.2-0.8,0.4-1.2,0.6c-0.4,0.2-0.8,0.4-1.2,0.7
				c-0.8,0.5-1.6,1-2.4,1.6c-1.7,1.2-3.5,2.8-5.4,4.7c-1.9,1.9-3.8,4.1-5.6,6.5c-6.1,7.7-11.6,14.8-16.6,21.1
				c-3.2,4.1-6.1,7.7-8.6,10.8c-1.2,1.5-2.4,3.1-3.6,4.6c-9.9,12.6-20.8,26.5-31.3,40.1l19.7,7.7c0.5-7.7,3.9-16,7.8-24.3
				c2-4.2,4-8.4,6-12.6c0.5-1.1,1-2.1,1.4-3.2c0.2-0.5,0.5-1.1,0.7-1.6c0.3-0.8,0.6-1.5,0.9-2.2c0.7-1.8,1.3-3.5,1.9-5.3
				c0.3-0.9,0.5-1.7,0.8-2.6c0.3-0.9,0.5-1.7,0.7-2.5c0.2-1.1,0.5-2.2,0.7-3.3l0.5-3.2l0.3-3.1c0.1-1,0.1-2,0.1-2.9
				c0-3.8-0.4-7.3-0.7-11.1l-0.3-2.8l-0.3-2.9c-0.1,0-0.2,0.2-0.2,0.3c-0.1,0.1-0.2,0.1-0.3,0.2c-0.1,0.1-0.2,0.1-0.3,0.1
				c-0.1,0-0.2,0-0.3-0.1c-0.5-0.2-1-0.7-1.6-2.2c-0.1-0.2-0.2-0.3-0.2-0.5l-0.3-0.7l-0.3-0.7l-0.1-0.2l-0.1-0.2l-0.1-0.5l-0.3-1
				l-0.1-0.5c0-0.2-0.1-0.3-0.2-0.6l-0.7-2.8c-1.6,2.1-3.3,4.1-4.9,6.2l-2.4,2.9l-1.7,2.1l-1.7,2.1c-0.6,0.7-1.2,1.4-1.5,1.8
				l-2.5,2.9c-0.5,0.6-0.7,0.6-1,0.8l-0.9,0.5l-0.9,0.5c-0.3,0.1-0.6,0.2-0.9,0.3c-0.6,0.2-1.1,0.4-1.7,0.5l-1.7,0.4
				c0.6-0.1,1.2-0.2,1.8-0.3c0.6-0.1,1.2-0.3,1.8-0.4l0.4-0.1c0.2-0.1,0.3-0.1,0.5-0.2c0.3-0.1,0.6-0.3,0.9-0.4
				c0.3-0.1,0.6-0.3,0.9-0.4c0.1,0,0.4-0.3,0.6-0.5l0.6-0.7c0.8-0.9,1.6-1.7,2.4-2.6c1-1.1,2-2.3,2.9-3.3l0.7-0.8l0.4-0.5l0.5-0.6
				c0.6-0.7,1.3-1.5,1.9-2.2c0.6-0.7,1.2-1.4,1.8-2.1c0.6-0.8,1.3-1.5,1.9-2.2c0.1,0.6,0.2,1.1,0.3,1.7l0.2,0.8l0.1,0.4l0.1,0.3
				c0.2,0.8,0.4,1.6,0.5,2.3c0.2,0.5,0.3,1,0.5,1.6c0.1,0.4,0.3,0.7,0.4,1c0.5,1.1,1,1.5,1.4,1.5c-0.6,0.2-1.2-0.1-2-1.1
				c-0.2-0.3-0.4-0.5-0.6-0.9l-0.3-0.6c-0.1-0.2-0.2-0.4-0.3-0.7c-0.2-0.6-0.4-1.1-0.6-1.7c-0.2-0.8-0.5-1.6-0.7-2.4l-2,2.4
				l-1.8,2.2l-1.8,2.2c-0.3,0.4-0.5,0.6-0.7,0.9l-0.7,0.8c-0.9,1-1.8,2-2.7,3c-0.7,0.7-1.4,1.4-2,2.1c-0.3,0.3-0.7,0.8-1,1l-0.8,0.4
				c-0.5,0.2-1,0.5-1.5,0.7c-0.9,0.2-1.9,0.6-2.8,0.7c-0.5,0.1-0.9,0.2-1.4,0.3c-0.2,0-0.4,0.1-0.7,0.1l-0.5,0.1
				c-0.5,0.1-1.1,0.1-1.6,0.2c-1,0.1-2.1,0.2-3.1,0.3c-4,0.4-7.3,0.5-9.4,0.7c-7.3,0.4-11.9,0.6-14.4,1c-2.5,0.3-2.8,0.7-1.8,1.1
				c2,0.7,9.1,1.6,14.8,2.5c4.1,0.4,3.4,0.9,3.3,1.4c-0.1,0.5,0.3,1.2,6.9,1.2c-4.7,0.3-8.2,0.3-11.8,0.3c-3.5,0-7,0-11.7,0
				c-0.5,0.4,6.6,0.3,13.2,0.2c6.6,0,12.5-0.5,9.2,0.4c-9.2,0.2-19.3,0.3-28.5,0.5c0.8,0.2,3.2,0.3,6.3,0.4c3.1,0.1,7,0.2,10.8,0.2
				c3.8,0,7.4,0,10.1,0c2.6,0,4.3,0,3.9,0.3c-2.6,0.4-9.4,0.3-15.6,0c-6.2-0.3-11.9-0.3-12.7,0.4c-0.2,0.1,2,0.2,4.9,0.2
				c2.9,0,6.4,0.1,8.7,0.1c-7.2,0.1-13.6,0.2-18.5,0.7c-4.9,0.4-8.4,1.2-10.2,1.9c-1.8,0.7-2,1.1-0.5,1c1.5,0,4.9-0.3,11.1-0.3
				c-4.3,0.2-9.4,0.5-13.5,1.7c-2,0.6-3.7,1.5-4.7,2.4c-1,0.9-1.5,1.9-1.8,3.2c0,0,0,0,0,0c0.4-1.3,1.1-2.5,2.4-3.5
				c1.4-1,3.6-1.8,5.3-2.2c-2.1,0.6-3.9,1.3-5,2.2c-1.2,0.9-1.8,1.7-2.3,3c0.3-0.3,0.7-0.7,1-0.9c0.5-0.7,1.1-1.2,2-1.7
				c0.9-0.5,2.2-1.1,3.7-1.6c-1.3,0.4-2.4,0.9-3.3,1.4c-0.9,0.5-1.5,1-1.9,1.6c1-0.5,2.2-1,4.5-1.4c2-0.6,4.6-0.8,7.3-0.9
				c2.6-0.1,5.4,0,8,0.1c5.2,0.3,10,0.6,13.6,0.7c5.3,0.1,10.7,0.1,16.5-0.2c1.4-0.1,2.9-0.2,4.4-0.3c0.8-0.1,1.5-0.2,2.3-0.3
				c0.3,0,1-0.1,0.8-0.1l0.1,0c0.2,0,0.4,0,0.6-0.1c0.3-0.1,0.5-0.2,0.6-0.3c0,0,0-0.1,0,0l0,0.1c0,0.1,0,0.2,0,0.2
				c0,0.1-0.1,0.3-0.1,0.4c-0.1,0.3-0.2,0.5-0.3,0.7c-0.1,0.1-0.1,0.2-0.2,0.3l0,0l-0.2,0.5l-0.5,1.2c-0.3,0.8-0.7,1.5-1.1,2.3
				c-3,6.3-6.7,12.9-10.1,20.3c-3.3,7.4-6.4,15.9-7.2,25.4l-3.5,41l25.5-32.4C3740.6,1306.6,3750.8,1293.7,3760.9,1280.9z"/>
		</g>
	</g>
</g>
<g>
	<g>
		<g>
			<path class="st1" d="M3760.9,1544.5c-0.3-0.4-2.6,1.7,0.1-2.1c4.4-6,8.7-11,13-16.1c1.1-1.3,2.2-2.5,3.3-3.8
				c0.2-0.2,0.2-0.2,0.2-0.2l0,0l0.1,0l0.1,0c0.2-0.1,0.2-0.1,0.3-0.5c0-0.4,0-0.9,0-1.4c0.4-0.2,0.7-0.3,0.8,0
				c0.1,0.1,0.1,0.4,0.1,0.7c0,0.1-0.1,0.3-0.2,0.5c-0.1,0.2-0.2,0.3-0.3,0.5l0,0c0,0.1,0,0.2,0,0.3c0,0.1,0,0.1,0,0.2l0,0.1l0,0.1
				c0,0,0,0,0,0.1l-1.2,3.4c-0.4,1.2-0.8,2.4-1.3,3.6c-0.9,2.4-1.8,4.9-2.8,7.3c-1.9,4.9-3.9,9.7-5.9,14.7c0.5-0.4,0.8-0.6,0.1,1.5
				c-3.4,8.5-8.8,20.2-13.7,32.9c-0.7,1.9-1.3,3.8-1.9,5.7c-0.4,1.5-0.2,2-0.1,2.3c-1.1,2.9-1.9,5.7-2.8,8.4c-0.2,0.7-0.4,1.3-0.7,2
				c-0.1,0.2-0.1,0.3-0.2,0.5l-0.2,0.8c-0.1,0.5-0.3,1.1-0.4,1.6c-0.4,2.1-0.6,4-0.6,5.9c0,0.8,0.1,1.6,0.2,2.4
				c0.1,0.8,0.2,1.6,0.4,2.5c0.1,0.8,0.4,1.8,0.7,2.7c0.4,1,0.6,1.9,1.2,3l0.4,0.8l0.2,0.4l0.3,0.4c0.4,0.6,0.8,1.1,1.2,1.7
				c0.5,0.6,1.1,1.2,1.7,1.8c0.2,0.1,0.3,0.3,0.5,0.4l0.6,0.4c0.4,0.3,0.8,0.5,1.2,0.8c0.8,0.5,1.7,0.9,2.6,1.3
				c0.5,0.2,0.9,0.3,1.4,0.5c0.5,0.1,0.9,0.2,1.4,0.3c2,0.3,3.6,0.1,5.3-0.1l4.7-0.7l2.3-4.2c11.7-21.2,23.6-42.7,35.7-64.8
				c3-5.5,6.1-11.1,9.2-16.7c0.7-1.4,1.5-2.7,2.3-4.1l0.8-1.7c0.6-1.2,1.2-2.4,1.8-3.6c1.4-2.8,2.8-5.5,4.3-8.3
				c0.4-0.8,0.8-1.6,1.3-2.2c0.5-0.7,1.3-1.4,2.1-1.3c0.1,0,0.2,0,0.3,0l0.1,0.2l0.2,0.5c0.1,0.3,0.2,0.6,0.3,1
				c0.2,0.7,0.3,1.3,0.5,2.1c0.5,2.3,0.6,5.1,0.5,8.2c-0.1,1.6-0.2,3.2-0.4,5c-0.1,0.9-0.2,1.8-0.4,2.7l-0.2,1.4l-0.4,2.3
				c-2.4,14.8-5.2,29.6-8.7,43.7c-4.5,17.9-11.5,39.7-17.9,57.8l7.3,2.9c1.5-3,2.7-5.8,4.1-8.4c-2,0.8,2.3-10.4,6.8-20.6
				c4.4-10.2,9-19.6,5.1-15.9c3.7-6,8.4-13.5,12.4-19.5c2-3,3.8-5.7,5-7.6c1.3-2,2.1-3.3,2.1-3.6c0-1.6,0.6-4.1,2.7-8.5
				c0.1-0.1,0.1-0.3,0.2-0.4c0.1-0.2,0.2-0.4,0.3-0.6c0.3-0.4,0.5-0.8,0.8-1.3c0.6-0.9,1.1-1.8,1.8-2.8c1.3-2,2.8-4.3,4.5-6.8
				c1.8-2.5,3.7-5.3,6-8.4c2.3-3.1,4.9-6.5,7.7-10.3c0.1,0.1,0.1,0.1,0.2,0.3l0.2,0.4c0.1,0.2,0.3,0.5,0.4,0.8
				c0.3,0.5,0.5,1,0.8,1.6c0.5,1.1,1.1,2.2,1.7,3.3c1.1,2.3,2.3,4.7,3.6,7.2c2.6,5,5.3,11,8.1,17.8c0.5,1.3,1,2.6,1.5,3.9
				c0.3,0.9,0.7,1.9,1,2.9c0.7,2,1.4,4.1,2,6.2c1.3,4.2,2.5,8.6,3.4,12.7c2,8.2,3.2,15.2,3.9,17.8c0.6,2,0.7,1.8,0.7,0.5
				c0-1.3-0.3-3.8-0.6-6.2c-0.6-4.9-1.4-9.8,0-5.8c-2-9-4.5-17.8-7.4-26.4c-0.4-1.1-0.7-2.2-1.1-3.2l-1-2.8c-0.4-1-0.8-2-1.2-3
				l-2.4-6c-0.8-2-1.7-3.9-2.5-5.8c-3.4-7.6-6.9-15-10.4-22.8c-6,7.3-12,14.5-17.9,21.7c-2.9,3.7-5.9,7.5-8.8,11.2l-4.5,6.1
				c-5.8,7.9-11.3,16-16.5,24.3c-10.4,16.5-19.7,33.7-27.9,51.4l23.7,9.5c7.7-22.8,14.5-45.9,20.5-69.3c3-11.8,5.7-23.5,8.2-35.5
				l0.3-1.6l0.4-2.2l0.8-4.4c0.3-1.5,0.5-2.9,0.7-4.3c0.2-1.4,0.5-2.9,0.6-4.3l0.5-4.2l0.3-4.1c0-0.7,0.1-1.4,0.1-2l0-1.9
				c0-1.3,0.1-2.6,0-3.8c-0.1-4.9-0.6-9.2-1.2-13.2c-0.8-3.8-1.6-7.5-2.4-11.4c-1.5-0.5-2.9-1-4.4-1.5c-0.7-0.2-1.4-0.5-2.1-0.7
				l-0.1,0l0,0c0,0,0,0-0.1,0l-0.1,0l-0.5-0.1l-0.9-0.3c-0.6-0.2-1.2-0.2-1.7-0.3c-1-0.1-2,0-2.8,0.1c-0.4,0.1-0.8,0.1-1.2,0.2
				c-0.4,0.1-0.8,0.3-1.3,0.4c-0.2,0.1-0.4,0.1-0.7,0.2c-0.3,0.1-0.6,0.2-0.8,0.4c-0.3,0.1-0.6,0.2-0.9,0.4c-0.3,0.1-0.7,0.4-1,0.5
				c-1.4,0.7-3.1,1.8-5.2,3.9c-1,1-2.1,2.4-3.3,4.1c-0.6,0.9-1.1,1.9-1.7,2.9c-0.6,1-1.2,2-1.8,3.1c-2.4,4.1-4.9,8.4-7.5,12.9
				c-3.8,6.6-7.9,13.7-12.3,21.3c-12.3,21.4-27.7,48.1-44.1,76.3l8.5-0.2c0.1,0.4,0.2,0.9,0.1,1.4c0,0.1,0,0.2,0,0.3
				c0,0.1,0,0.1,0,0.2l0,0.1c0,0,0,0,0,0c0,0,0,0,0,0s0,0,0,0c0-0.1,0.1-0.1,0.1-0.2c0.1-0.1,0.1-0.2,0.2-0.3c0,0,0.1-0.1,0.2-0.2
				c0.1-0.1,0.1-0.2,0.2-0.2c0.2-0.2,0.3-0.3,0.5-0.4c0.2-0.2,0.5-0.4,0.7-0.6c0.1-0.1,0.3-0.2,0.4-0.2l0.2-0.1l0.2-0.1
				c0.3-0.2,0.6-0.4,1-0.5c0.6-0.2,1.4-0.6,2.1-0.8l0.1,0l0,0l0,0c0,0,0,0,0,0c0,0,0-0.1,0-0.1c-0.1-0.2-0.1-0.8-0.1-1.5
				c0-0.6,0.1-1.3,0.2-1.6c0.8-2.6,1.6-5.2,2.5-7.8c1-2.7,1.8-5.4,2.9-8.1c4-10.8,8.6-21.6,13.2-32.4c2.3-5.4,4.6-10.9,6.8-16.3
				c1.1-2.7,2.2-5.5,3.2-8.2c0.5-1.4,1-2.7,1.5-4.1c0.5-1.4,1-2.8,1.5-4.2c0.4-1.2,0.8-2.4,1.2-3.6c0.4-1.2,0.7-2.4,1.1-3.7
				c0.7-2.4,1.5-4.9,2.2-7.3l0.5-1.8c0.2-0.6,0.4-1.2,0.5-1.8c0.3-1.1,0.5-2.3,0.8-3.4c0.5-2.3,1-4.5,1.5-6.8
				c0.6-2.3,0.8-4.3,1.1-6.3c0.3-2,0.6-4.1,0.9-6.1c0.6-4,1.2-8,1.7-12l-1.1-0.3l-0.9-0.3c-0.6-0.2-1.2-0.4-1.8-0.6
				s-1.2-0.4-1.8-0.6l-0.4-0.1l-0.1,0l-0.1,0l-0.2,0l-0.5,0c-0.6-0.1-1.2-0.1-1.8-0.2c-1.2-0.1-2.2-0.2-3.2-0.2
				c-1-0.1-1.9-0.1-2.9,0c-1.8,0.1-3.5,0.4-5,0.9c-1.6,0.5-3.1,1.1-4.6,1.9c-0.4,0.2-0.8,0.4-1.2,0.6c-0.4,0.2-0.8,0.4-1.2,0.7
				c-0.8,0.5-1.6,1-2.4,1.6c-1.7,1.2-3.5,2.8-5.4,4.7c-1.9,1.9-3.8,4.1-5.6,6.5c-6.1,7.7-11.6,14.8-16.6,21.1
				c-3.2,4.1-6.1,7.7-8.6,10.8c-1.2,1.5-2.4,3.1-3.6,4.6c-9.9,12.6-20.8,26.5-31.3,40.1l19.7,7.7c0.5-7.7,3.9-16,7.8-24.3
				c2-4.2,4-8.4,6-12.6c0.5-1.1,1-2.1,1.4-3.2c0.2-0.5,0.5-1.1,0.7-1.6c0.3-0.8,0.6-1.5,0.9-2.2c0.7-1.8,1.3-3.5,1.9-5.3
				c0.3-0.9,0.5-1.7,0.8-2.6c0.3-0.9,0.5-1.7,0.7-2.5c0.2-1.1,0.5-2.2,0.7-3.3l0.5-3.2l0.3-3.1c0.1-1,0.1-2,0.1-2.9
				c0-3.8-0.4-7.3-0.7-11.1l-0.3-2.8l-0.3-2.9c-0.1,0-0.2,0.2-0.2,0.3c-0.1,0.1-0.2,0.1-0.3,0.2c-0.1,0.1-0.2,0.1-0.3,0.1
				c-0.1,0-0.2,0-0.3-0.1c-0.5-0.2-1-0.7-1.6-2.2c-0.1-0.2-0.2-0.3-0.2-0.5l-0.3-0.7l-0.3-0.7l-0.1-0.2l-0.1-0.2l-0.1-0.5l-0.3-1
				l-0.1-0.5c0-0.2-0.1-0.3-0.2-0.6l-0.7-2.8c-1.6,2.1-3.3,4.1-4.9,6.2l-2.4,2.9l-1.7,2.1l-1.7,2.1c-0.6,0.7-1.2,1.4-1.5,1.8
				l-2.5,2.9c-0.5,0.6-0.7,0.6-1,0.8l-0.9,0.5l-0.9,0.5c-0.3,0.1-0.6,0.2-0.9,0.3c-0.6,0.2-1.1,0.4-1.7,0.5l-1.7,0.4
				c0.6-0.1,1.2-0.2,1.8-0.3c0.6-0.1,1.2-0.3,1.8-0.4l0.4-0.1c0.2-0.1,0.3-0.1,0.5-0.2c0.3-0.1,0.6-0.3,0.9-0.4
				c0.3-0.1,0.6-0.3,0.9-0.4c0.1,0,0.4-0.3,0.6-0.5l0.6-0.7c0.8-0.9,1.6-1.7,2.4-2.6c1-1.1,2-2.3,2.9-3.3l0.7-0.8l0.4-0.5l0.5-0.6
				c0.6-0.7,1.3-1.5,1.9-2.2c0.6-0.7,1.2-1.4,1.8-2.1c0.6-0.8,1.3-1.5,1.9-2.2c0.1,0.6,0.2,1.1,0.3,1.7l0.2,0.8l0.1,0.4l0.1,0.3
				c0.2,0.8,0.4,1.6,0.5,2.3c0.2,0.5,0.3,1,0.5,1.6c0.1,0.4,0.3,0.7,0.4,1c0.5,1.1,1,1.5,1.4,1.5c-0.6,0.2-1.2-0.1-2-1.1
				c-0.2-0.3-0.4-0.5-0.6-0.9l-0.3-0.6c-0.1-0.2-0.2-0.4-0.3-0.7c-0.2-0.6-0.4-1.1-0.6-1.7c-0.2-0.8-0.5-1.6-0.7-2.4l-2,2.4
				l-1.8,2.2l-1.8,2.2c-0.3,0.4-0.5,0.6-0.7,0.9l-0.7,0.8c-0.9,1-1.8,2-2.7,3c-0.7,0.7-1.4,1.4-2,2.1c-0.3,0.3-0.7,0.8-1,1l-0.8,0.4
				c-0.5,0.2-1,0.5-1.5,0.7c-0.9,0.2-1.9,0.6-2.8,0.7c-0.5,0.1-0.9,0.2-1.4,0.3c-0.2,0-0.4,0.1-0.7,0.1l-0.5,0.1
				c-0.5,0.1-1.1,0.1-1.6,0.2c-1,0.1-2.1,0.2-3.1,0.3c-4,0.4-7.3,0.5-9.4,0.7c-7.3,0.4-11.9,0.6-14.4,1c-2.5,0.3-2.8,0.7-1.8,1.1
				c2,0.7,9.1,1.6,14.8,2.5c4.1,0.4,3.4,0.9,3.3,1.4c-0.1,0.5,0.3,1.2,6.9,1.2c-4.7,0.3-8.2,0.3-11.8,0.3c-3.5,0-7,0-11.7,0
				c-0.5,0.4,6.6,0.3,13.2,0.2c6.6,0,12.5-0.5,9.2,0.4c-9.2,0.2-19.3,0.3-28.5,0.5c0.8,0.2,3.2,0.3,6.3,0.4c3.1,0.1,7,0.2,10.8,0.2
				c3.8,0,7.4,0,10.1,0c2.6,0,4.3,0,3.9,0.3c-2.6,0.4-9.4,0.3-15.6,0c-6.2-0.3-11.9-0.3-12.7,0.4c-0.2,0.1,2,0.2,4.9,0.2
				c2.9,0,6.4,0.1,8.7,0.1c-7.2,0.1-13.6,0.2-18.5,0.7c-4.9,0.4-8.4,1.2-10.2,1.9c-1.8,0.7-2,1.1-0.5,1c1.5,0,4.9-0.3,11.1-0.3
				c-4.3,0.2-9.4,0.5-13.5,1.7c-2,0.6-3.7,1.5-4.7,2.4c-1,0.9-1.5,1.9-1.8,3.2c0,0,0,0,0,0c0.4-1.3,1.1-2.5,2.4-3.5
				c1.4-1,3.6-1.8,5.3-2.2c-2.1,0.6-3.9,1.3-5,2.2c-1.2,0.9-1.8,1.7-2.3,3c0.3-0.3,0.7-0.7,1-0.9c0.5-0.7,1.1-1.2,2-1.7
				c0.9-0.5,2.2-1.1,3.7-1.6c-1.3,0.4-2.4,0.9-3.3,1.4c-0.9,0.5-1.5,1-1.9,1.6c1-0.5,2.2-1,4.5-1.4c2-0.6,4.6-0.8,7.3-0.9
				c2.6-0.1,5.4,0,8,0.1c5.2,0.3,10,0.6,13.6,0.7c5.3,0.1,10.7,0.1,16.5-0.2c1.4-0.1,2.9-0.2,4.4-0.3c0.8-0.1,1.5-0.2,2.3-0.3
				c0.3,0,1-0.1,0.8-0.1l0.1,0c0.2,0,0.4,0,0.6-0.1c0.3-0.1,0.5-0.2,0.6-0.3c0,0,0-0.1,0,0l0,0.1c0,0.1,0,0.2,0,0.2
				c0,0.1-0.1,0.3-0.1,0.4c-0.1,0.3-0.2,0.5-0.3,0.7c-0.1,0.1-0.1,0.2-0.2,0.3l0,0l-0.2,0.5l-0.5,1.2c-0.3,0.8-0.7,1.5-1.1,2.3
				c-3,6.3-6.7,12.9-10.1,20.3c-3.3,7.4-6.4,15.9-7.2,25.4l-3.5,41l25.5-32.4C3740.6,1570.2,3750.8,1557.3,3760.9,1544.5z"/>
		</g>
	</g>
</g>
<g>
	<g>
		<g>
			<path class="st2" d="M3760.9,1822.7c-0.3-0.4-2.6,1.7,0.1-2.1c4.4-6,8.7-11,13-16.1c1.1-1.3,2.2-2.5,3.3-3.8
				c0.2-0.2,0.2-0.2,0.2-0.2l0,0l0.1,0l0.1,0c0.2-0.1,0.2-0.1,0.3-0.5c0-0.4,0-0.9,0-1.4c0.4-0.2,0.7-0.3,0.8,0
				c0.1,0.1,0.1,0.4,0.1,0.7c0,0.1-0.1,0.3-0.2,0.5c-0.1,0.2-0.2,0.3-0.3,0.5l0,0c0,0.1,0,0.2,0,0.3c0,0.1,0,0.1,0,0.2l0,0.1l0,0.1
				c0,0,0,0,0,0.1l-1.2,3.4c-0.4,1.2-0.8,2.4-1.3,3.6c-0.9,2.4-1.8,4.9-2.8,7.3c-1.9,4.9-3.9,9.7-5.9,14.7c0.5-0.4,0.8-0.6,0.1,1.5
				c-3.4,8.5-8.8,20.2-13.7,32.9c-0.7,1.9-1.3,3.8-1.9,5.7c-0.4,1.5-0.2,2-0.1,2.3c-1.1,2.9-1.9,5.7-2.8,8.4c-0.2,0.7-0.4,1.3-0.7,2
				c-0.1,0.2-0.1,0.3-0.2,0.5l-0.2,0.8c-0.1,0.5-0.3,1.1-0.4,1.6c-0.4,2.1-0.6,4-0.6,5.9c0,0.8,0.1,1.6,0.2,2.4
				c0.1,0.8,0.2,1.6,0.4,2.5c0.1,0.8,0.4,1.8,0.7,2.7c0.4,1,0.6,1.9,1.2,3l0.4,0.8l0.2,0.4l0.3,0.4c0.4,0.6,0.8,1.1,1.2,1.7
				c0.5,0.6,1.1,1.2,1.7,1.8c0.2,0.1,0.3,0.3,0.5,0.4l0.6,0.4c0.4,0.3,0.8,0.5,1.2,0.8c0.8,0.5,1.7,0.9,2.6,1.3
				c0.5,0.2,0.9,0.3,1.4,0.5c0.5,0.1,0.9,0.2,1.4,0.3c2,0.3,3.6,0.1,5.3-0.1l4.7-0.7l2.3-4.2c11.7-21.2,23.6-42.7,35.7-64.8
				c3-5.5,6.1-11.1,9.2-16.7c0.7-1.4,1.5-2.7,2.3-4.1l0.8-1.7c0.6-1.2,1.2-2.4,1.8-3.6c1.4-2.8,2.8-5.5,4.3-8.3
				c0.4-0.8,0.8-1.6,1.3-2.2c0.5-0.7,1.3-1.4,2.1-1.3c0.1,0,0.2,0,0.3,0l0.1,0.2l0.2,0.5c0.1,0.3,0.2,0.6,0.3,1
				c0.2,0.7,0.3,1.3,0.5,2.1c0.5,2.3,0.6,5.1,0.5,8.2c-0.1,1.6-0.2,3.2-0.4,5c-0.1,0.9-0.2,1.8-0.4,2.7l-0.2,1.4l-0.4,2.3
				c-2.4,14.8-5.2,29.6-8.7,43.7c-4.5,17.9-11.5,39.7-17.9,57.8l7.3,2.9c1.5-3,2.7-5.8,4.1-8.4c-2,0.8,2.3-10.4,6.8-20.6
				c4.4-10.2,9-19.6,5.1-15.9c3.7-6,8.4-13.5,12.4-19.5c2-3,3.8-5.7,5-7.6c1.3-2,2.1-3.3,2.1-3.6c0-1.6,0.6-4.1,2.7-8.5
				c0.1-0.1,0.1-0.3,0.2-0.4c0.1-0.2,0.2-0.4,0.3-0.6c0.3-0.4,0.5-0.8,0.8-1.3c0.6-0.9,1.1-1.8,1.8-2.8c1.3-2,2.8-4.3,4.5-6.8
				c1.8-2.5,3.7-5.3,6-8.4c2.3-3.1,4.9-6.5,7.7-10.3c0.1,0.1,0.1,0.1,0.2,0.3l0.2,0.4c0.1,0.2,0.3,0.5,0.4,0.8
				c0.3,0.5,0.5,1,0.8,1.6c0.5,1.1,1.1,2.2,1.7,3.3c1.1,2.3,2.3,4.7,3.6,7.2c2.6,5,5.3,11,8.1,17.8c0.5,1.3,1,2.6,1.5,3.9
				c0.3,0.9,0.7,1.9,1,2.9c0.7,2,1.4,4.1,2,6.2c1.3,4.2,2.5,8.6,3.4,12.7c2,8.2,3.2,15.2,3.9,17.8c0.6,2,0.7,1.8,0.7,0.5
				c0-1.3-0.3-3.8-0.6-6.2c-0.6-4.9-1.4-9.8,0-5.8c-2-9-4.5-17.8-7.4-26.4c-0.4-1.1-0.7-2.2-1.1-3.2l-1-2.8c-0.4-1-0.8-2-1.2-3
				l-2.4-6c-0.8-2-1.7-3.9-2.5-5.8c-3.4-7.6-6.9-15-10.4-22.8c-6,7.3-12,14.5-17.9,21.7c-2.9,3.7-5.9,7.5-8.8,11.2l-4.5,6.1
				c-5.8,7.9-11.3,16-16.5,24.3c-10.4,16.5-19.7,33.7-27.9,51.4l23.7,9.5c7.7-22.8,14.5-45.9,20.5-69.3c3-11.8,5.7-23.5,8.2-35.5
				l0.3-1.6l0.4-2.2l0.8-4.4c0.3-1.5,0.5-2.9,0.7-4.3c0.2-1.4,0.5-2.9,0.6-4.3l0.5-4.2l0.3-4.1c0-0.7,0.1-1.4,0.1-2l0-1.9
				c0-1.3,0.1-2.6,0-3.8c-0.1-4.9-0.6-9.2-1.2-13.2c-0.8-3.8-1.6-7.5-2.4-11.4c-1.5-0.5-2.9-1-4.4-1.5c-0.7-0.2-1.4-0.5-2.1-0.7
				l-0.1,0l0,0c0,0,0,0-0.1,0l-0.1,0l-0.5-0.1l-0.9-0.3c-0.6-0.2-1.2-0.2-1.7-0.3c-1-0.1-2,0-2.8,0.1c-0.4,0.1-0.8,0.1-1.2,0.2
				c-0.4,0.1-0.8,0.3-1.3,0.4c-0.2,0.1-0.4,0.1-0.7,0.2c-0.3,0.1-0.6,0.2-0.8,0.4c-0.3,0.1-0.6,0.2-0.9,0.4c-0.3,0.1-0.7,0.4-1,0.5
				c-1.4,0.7-3.1,1.8-5.2,3.9c-1,1-2.1,2.4-3.3,4.1c-0.6,0.9-1.1,1.9-1.7,2.9c-0.6,1-1.2,2-1.8,3.1c-2.4,4.1-4.9,8.4-7.5,12.9
				c-3.8,6.6-7.9,13.7-12.3,21.3c-12.3,21.4-27.7,48.1-44.1,76.3l8.5-0.2c0.1,0.4,0.2,0.9,0.1,1.4c0,0.1,0,0.2,0,0.3
				c0,0.1,0,0.1,0,0.2l0,0.1c0,0,0,0,0,0c0,0,0,0,0,0s0,0,0,0c0-0.1,0.1-0.1,0.1-0.2c0.1-0.1,0.1-0.2,0.2-0.3c0,0,0.1-0.1,0.2-0.2
				c0.1-0.1,0.1-0.2,0.2-0.2c0.2-0.2,0.3-0.3,0.5-0.4c0.2-0.2,0.5-0.4,0.7-0.6c0.1-0.1,0.3-0.2,0.4-0.2l0.2-0.1l0.2-0.1
				c0.3-0.2,0.6-0.4,1-0.5c0.6-0.2,1.4-0.6,2.1-0.8l0.1,0l0,0l0,0c0,0,0,0,0,0c0,0,0-0.1,0-0.1c-0.1-0.2-0.1-0.8-0.1-1.5
				c0-0.6,0.1-1.3,0.2-1.6c0.8-2.6,1.6-5.2,2.5-7.8c1-2.7,1.8-5.4,2.9-8.1c4-10.8,8.6-21.6,13.2-32.4c2.3-5.4,4.6-10.9,6.8-16.3
				c1.1-2.7,2.2-5.5,3.2-8.2c0.5-1.4,1-2.7,1.5-4.1c0.5-1.4,1-2.8,1.5-4.2c0.4-1.2,0.8-2.4,1.2-3.6c0.4-1.2,0.7-2.4,1.1-3.7
				c0.7-2.4,1.5-4.9,2.2-7.3l0.5-1.8c0.2-0.6,0.4-1.2,0.5-1.8c0.3-1.1,0.5-2.3,0.8-3.4c0.5-2.3,1-4.5,1.5-6.8
				c0.6-2.3,0.8-4.3,1.1-6.3c0.3-2,0.6-4.1,0.9-6.1c0.6-4,1.2-8,1.7-12l-1.1-0.3l-0.9-0.3c-0.6-0.2-1.2-0.4-1.8-0.6
				c-0.6-0.2-1.2-0.4-1.8-0.6l-0.4-0.1l-0.1,0l-0.1,0l-0.2,0l-0.5,0c-0.6-0.1-1.2-0.1-1.8-0.2c-1.2-0.1-2.2-0.2-3.2-0.2
				c-1-0.1-1.9-0.1-2.9,0c-1.8,0.1-3.5,0.4-5,0.9c-1.6,0.5-3.1,1.1-4.6,1.9c-0.4,0.2-0.8,0.4-1.2,0.6c-0.4,0.2-0.8,0.4-1.2,0.7
				c-0.8,0.5-1.6,1-2.4,1.6c-1.7,1.2-3.5,2.8-5.4,4.7c-1.9,1.9-3.8,4.1-5.6,6.5c-6.1,7.7-11.6,14.8-16.6,21.1
				c-3.2,4.1-6.1,7.7-8.6,10.8c-1.2,1.5-2.4,3.1-3.6,4.6c-9.9,12.6-20.8,26.5-31.3,40.1l19.7,7.7c0.5-7.7,3.9-16,7.8-24.3
				c2-4.2,4-8.4,6-12.6c0.5-1.1,1-2.1,1.4-3.2c0.2-0.5,0.5-1.1,0.7-1.6c0.3-0.8,0.6-1.5,0.9-2.2c0.7-1.8,1.3-3.5,1.9-5.3
				c0.3-0.9,0.5-1.7,0.8-2.6c0.3-0.9,0.5-1.7,0.7-2.5c0.2-1.1,0.5-2.2,0.7-3.3l0.5-3.2l0.3-3.1c0.1-1,0.1-2,0.1-2.9
				c0-3.8-0.4-7.3-0.7-11.1l-0.3-2.8l-0.3-2.9c-0.1,0-0.2,0.2-0.2,0.3c-0.1,0.1-0.2,0.1-0.3,0.2c-0.1,0.1-0.2,0.1-0.3,0.1
				c-0.1,0-0.2,0-0.3-0.1c-0.5-0.2-1-0.7-1.6-2.2c-0.1-0.2-0.2-0.3-0.2-0.5l-0.3-0.7l-0.3-0.7l-0.1-0.2l-0.1-0.2l-0.1-0.5l-0.3-1
				l-0.1-0.5c0-0.2-0.1-0.3-0.2-0.6l-0.7-2.8c-1.6,2.1-3.3,4.1-4.9,6.2l-2.4,2.9l-1.7,2.1l-1.7,2.1c-0.6,0.7-1.2,1.4-1.5,1.8
				l-2.5,2.9c-0.5,0.6-0.7,0.6-1,0.8l-0.9,0.5l-0.9,0.5c-0.3,0.1-0.6,0.2-0.9,0.3c-0.6,0.2-1.1,0.4-1.7,0.5l-1.7,0.4
				c0.6-0.1,1.2-0.2,1.8-0.3c0.6-0.1,1.2-0.3,1.8-0.4l0.4-0.1c0.2-0.1,0.3-0.1,0.5-0.2c0.3-0.1,0.6-0.3,0.9-0.4
				c0.3-0.1,0.6-0.3,0.9-0.4c0.1,0,0.4-0.3,0.6-0.5l0.6-0.7c0.8-0.9,1.6-1.7,2.4-2.6c1-1.1,2-2.3,2.9-3.3l0.7-0.8l0.4-0.5l0.5-0.6
				c0.6-0.7,1.3-1.5,1.9-2.2c0.6-0.7,1.2-1.4,1.8-2.1c0.6-0.8,1.3-1.5,1.9-2.2c0.1,0.6,0.2,1.1,0.3,1.7l0.2,0.8l0.1,0.4l0.1,0.3
				c0.2,0.8,0.4,1.6,0.5,2.3c0.2,0.5,0.3,1,0.5,1.6c0.1,0.4,0.3,0.7,0.4,1c0.5,1.1,1,1.5,1.4,1.5c-0.6,0.2-1.2-0.1-2-1.1
				c-0.2-0.3-0.4-0.5-0.6-0.9l-0.3-0.6c-0.1-0.2-0.2-0.4-0.3-0.7c-0.2-0.6-0.4-1.1-0.6-1.7c-0.2-0.8-0.5-1.6-0.7-2.4l-2,2.4
				l-1.8,2.2l-1.8,2.2c-0.3,0.4-0.5,0.6-0.7,0.9l-0.7,0.8c-0.9,1-1.8,2-2.7,3c-0.7,0.7-1.4,1.4-2,2.1c-0.3,0.3-0.7,0.8-1,1l-0.8,0.4
				c-0.5,0.2-1,0.5-1.5,0.7c-0.9,0.2-1.9,0.6-2.8,0.7c-0.5,0.1-0.9,0.2-1.4,0.3c-0.2,0-0.4,0.1-0.7,0.1l-0.5,0.1
				c-0.5,0.1-1.1,0.1-1.6,0.2c-1,0.1-2.1,0.2-3.1,0.3c-4,0.4-7.3,0.5-9.4,0.7c-7.3,0.4-11.9,0.6-14.4,1c-2.5,0.3-2.8,0.7-1.8,1.1
				c2,0.7,9.1,1.6,14.8,2.5c4.1,0.4,3.4,0.9,3.3,1.4c-0.1,0.5,0.3,1.2,6.9,1.2c-4.7,0.3-8.2,0.3-11.8,0.3c-3.5,0-7,0-11.7,0
				c-0.5,0.4,6.6,0.3,13.2,0.2c6.6,0,12.5-0.5,9.2,0.4c-9.2,0.2-19.3,0.3-28.5,0.5c0.8,0.2,3.2,0.3,6.3,0.4c3.1,0.1,7,0.2,10.8,0.2
				c3.8,0,7.4,0,10.1,0c2.6,0,4.3,0,3.9,0.3c-2.6,0.4-9.4,0.3-15.6,0c-6.2-0.3-11.9-0.3-12.7,0.4c-0.2,0.1,2,0.2,4.9,0.2
				c2.9,0,6.4,0.1,8.7,0.1c-7.2,0.1-13.6,0.2-18.5,0.7c-4.9,0.4-8.4,1.2-10.2,1.9c-1.8,0.7-2,1.1-0.5,1c1.5,0,4.9-0.3,11.1-0.3
				c-4.3,0.2-9.4,0.5-13.5,1.7c-2,0.6-3.7,1.5-4.7,2.4c-1,0.9-1.5,1.9-1.8,3.2c0,0,0,0,0,0c0.4-1.3,1.1-2.5,2.4-3.5
				c1.4-1,3.6-1.8,5.3-2.2c-2.1,0.6-3.9,1.3-5,2.2c-1.2,0.9-1.8,1.7-2.3,3c0.3-0.3,0.7-0.7,1-0.9c0.5-0.7,1.1-1.2,2-1.7
				c0.9-0.5,2.2-1.1,3.7-1.6c-1.3,0.4-2.4,0.9-3.3,1.4c-0.9,0.5-1.5,1-1.9,1.6c1-0.5,2.2-1,4.5-1.4c2-0.6,4.6-0.8,7.3-0.9
				c2.6-0.1,5.4,0,8,0.1c5.2,0.3,10,0.6,13.6,0.7c5.3,0.1,10.7,0.1,16.5-0.2c1.4-0.1,2.9-0.2,4.4-0.3c0.8-0.1,1.5-0.2,2.3-0.3
				c0.3,0,1-0.1,0.8-0.1l0.1,0c0.2,0,0.4,0,0.6-0.1c0.3-0.1,0.5-0.2,0.6-0.3c0,0,0-0.1,0,0l0,0.1c0,0.1,0,0.2,0,0.2
				c0,0.1-0.1,0.3-0.1,0.4c-0.1,0.3-0.2,0.5-0.3,0.7c-0.1,0.1-0.1,0.2-0.2,0.3l0,0l-0.2,0.5l-0.5,1.2c-0.3,0.8-0.7,1.5-1.1,2.3
				c-3,6.3-6.7,12.9-10.1,20.3c-3.3,7.4-6.4,15.9-7.2,25.4l-3.5,41l25.5-32.4C3740.6,1848.4,3750.8,1835.6,3760.9,1822.7z"/>
		</g>
	</g>
</g>
<g>
	<g>
		<g>
			<path class="st3" d="M3760.9,2124.9c-0.3-0.4-2.6,1.7,0.1-2.1c4.4-6,8.7-11,13-16.1c1.1-1.3,2.2-2.5,3.3-3.8
				c0.2-0.2,0.2-0.2,0.2-0.2l0,0l0.1,0l0.1,0c0.2-0.1,0.2-0.1,0.3-0.5c0-0.4,0-0.9,0-1.4c0.4-0.2,0.7-0.3,0.8,0
				c0.1,0.1,0.1,0.4,0.1,0.7c0,0.1-0.1,0.3-0.2,0.5c-0.1,0.2-0.2,0.3-0.3,0.5l0,0c0,0.1,0,0.2,0,0.3c0,0.1,0,0.1,0,0.2l0,0.1l0,0.1
				c0,0,0,0,0,0.1l-1.2,3.4c-0.4,1.2-0.8,2.4-1.3,3.6c-0.9,2.4-1.8,4.9-2.8,7.3c-1.9,4.9-3.9,9.7-5.9,14.7c0.5-0.4,0.8-0.6,0.1,1.5
				c-3.4,8.5-8.8,20.2-13.7,32.9c-0.7,1.9-1.3,3.8-1.9,5.7c-0.4,1.5-0.2,2-0.1,2.3c-1.1,2.9-1.9,5.7-2.8,8.4c-0.2,0.7-0.4,1.3-0.7,2
				c-0.1,0.2-0.1,0.3-0.2,0.5l-0.2,0.8c-0.1,0.5-0.3,1.1-0.4,1.6c-0.4,2.1-0.6,4-0.6,5.9c0,0.8,0.1,1.6,0.2,2.4
				c0.1,0.8,0.2,1.6,0.4,2.5c0.1,0.8,0.4,1.8,0.7,2.7c0.4,1,0.6,1.9,1.2,3l0.4,0.8l0.2,0.4l0.3,0.4c0.4,0.6,0.8,1.1,1.2,1.7
				c0.5,0.6,1.1,1.2,1.7,1.8c0.2,0.1,0.3,0.3,0.5,0.4l0.6,0.4c0.4,0.3,0.8,0.5,1.2,0.8c0.8,0.5,1.7,0.9,2.6,1.3
				c0.5,0.2,0.9,0.3,1.4,0.5c0.5,0.1,0.9,0.2,1.4,0.3c2,0.3,3.6,0.1,5.3-0.1l4.7-0.7l2.3-4.2c11.7-21.2,23.6-42.7,35.7-64.8
				c3-5.5,6.1-11.1,9.2-16.7c0.7-1.4,1.5-2.7,2.3-4.1l0.8-1.7c0.6-1.2,1.2-2.4,1.8-3.6c1.4-2.8,2.8-5.5,4.3-8.3
				c0.4-0.8,0.8-1.6,1.3-2.2c0.5-0.7,1.3-1.4,2.1-1.3c0.1,0,0.2,0,0.3,0l0.1,0.2l0.2,0.5c0.1,0.3,0.2,0.6,0.3,1
				c0.2,0.7,0.3,1.3,0.5,2.1c0.5,2.3,0.6,5.1,0.5,8.2c-0.1,1.6-0.2,3.2-0.4,5c-0.1,0.9-0.2,1.8-0.4,2.7l-0.2,1.4l-0.4,2.3
				c-2.4,14.8-5.2,29.6-8.7,43.7c-4.5,17.9-11.5,39.7-17.9,57.8l7.3,2.9c1.5-3,2.7-5.8,4.1-8.4c-2,0.8,2.3-10.4,6.8-20.6
				c4.4-10.2,9-19.6,5.1-15.9c3.7-6,8.4-13.5,12.4-19.5c2-3,3.8-5.7,5-7.6c1.3-2,2.1-3.3,2.1-3.6c0-1.6,0.6-4.1,2.7-8.5
				c0.1-0.1,0.1-0.3,0.2-0.4c0.1-0.2,0.2-0.4,0.3-0.6c0.3-0.4,0.5-0.8,0.8-1.3c0.6-0.9,1.1-1.8,1.8-2.8c1.3-2,2.8-4.3,4.5-6.8
				c1.8-2.5,3.7-5.3,6-8.4c2.3-3.1,4.9-6.5,7.7-10.3c0.1,0.1,0.1,0.1,0.2,0.3l0.2,0.4c0.1,0.2,0.3,0.5,0.4,0.8
				c0.3,0.5,0.5,1,0.8,1.6c0.5,1.1,1.1,2.2,1.7,3.3c1.1,2.3,2.3,4.7,3.6,7.2c2.6,5,5.3,11,8.1,17.8c0.5,1.3,1,2.6,1.5,3.9
				c0.3,0.9,0.7,1.9,1,2.9c0.7,2,1.4,4.1,2,6.2c1.3,4.2,2.5,8.6,3.4,12.7c2,8.2,3.2,15.2,3.9,17.8c0.6,2,0.7,1.8,0.7,0.5
				c0-1.3-0.3-3.8-0.6-6.2c-0.6-4.9-1.4-9.8,0-5.8c-2-9-4.5-17.8-7.4-26.4c-0.4-1.1-0.7-2.2-1.1-3.2l-1-2.8c-0.4-1-0.8-2-1.2-3
				l-2.4-6c-0.8-2-1.7-3.9-2.5-5.8c-3.4-7.6-6.9-15-10.4-22.8c-6,7.3-12,14.5-17.9,21.7c-2.9,3.7-5.9,7.5-8.8,11.2l-4.5,6.1
				c-5.8,7.9-11.3,16-16.5,24.3c-10.4,16.5-19.7,33.7-27.9,51.4l23.7,9.5c7.7-22.8,14.5-45.9,20.5-69.3c3-11.8,5.7-23.5,8.2-35.5
				l0.3-1.6l0.4-2.2l0.8-4.4c0.3-1.5,0.5-2.9,0.7-4.3c0.2-1.4,0.5-2.9,0.6-4.3l0.5-4.2l0.3-4.1c0-0.7,0.1-1.4,0.1-2l0-1.9
				c0-1.3,0.1-2.6,0-3.8c-0.1-4.9-0.6-9.2-1.2-13.2c-0.8-3.8-1.6-7.5-2.4-11.4c-1.5-0.5-2.9-1-4.4-1.5c-0.7-0.2-1.4-0.5-2.1-0.7
				l-0.1,0l0,0c0,0,0,0-0.1,0l-0.1,0l-0.5-0.1l-0.9-0.3c-0.6-0.2-1.2-0.2-1.7-0.3c-1-0.1-2,0-2.8,0.1c-0.4,0.1-0.8,0.1-1.2,0.2
				c-0.4,0.1-0.8,0.3-1.3,0.4c-0.2,0.1-0.4,0.1-0.7,0.2c-0.3,0.1-0.6,0.2-0.8,0.4c-0.3,0.1-0.6,0.2-0.9,0.4c-0.3,0.1-0.7,0.4-1,0.5
				c-1.4,0.7-3.1,1.8-5.2,3.9c-1,1-2.1,2.4-3.3,4.1c-0.6,0.9-1.1,1.9-1.7,2.9c-0.6,1-1.2,2-1.8,3.1c-2.4,4.1-4.9,8.4-7.5,12.9
				c-3.8,6.6-7.9,13.7-12.3,21.3c-12.3,21.4-27.7,48.1-44.1,76.3l8.5-0.2c0.1,0.4,0.2,0.9,0.1,1.4c0,0.1,0,0.2,0,0.3
				c0,0.1,0,0.1,0,0.2l0,0.1c0,0,0,0,0,0c0,0,0,0,0,0s0,0,0,0c0-0.1,0.1-0.1,0.1-0.2c0.1-0.1,0.1-0.2,0.2-0.3c0,0,0.1-0.1,0.2-0.2
				c0.1-0.1,0.1-0.2,0.2-0.2c0.2-0.2,0.3-0.3,0.5-0.4c0.2-0.2,0.5-0.4,0.7-0.6c0.1-0.1,0.3-0.2,0.4-0.2l0.2-0.1l0.2-0.1
				c0.3-0.2,0.6-0.4,1-0.5c0.6-0.2,1.4-0.6,2.1-0.8l0.1,0l0,0l0,0c0,0,0,0,0,0c0,0,0-0.1,0-0.1c-0.1-0.2-0.1-0.8-0.1-1.5
				c0-0.6,0.1-1.3,0.2-1.6c0.8-2.6,1.6-5.2,2.5-7.8c1-2.7,1.8-5.4,2.9-8.1c4-10.8,8.6-21.6,13.2-32.4c2.3-5.4,4.6-10.9,6.8-16.3
				c1.1-2.7,2.2-5.5,3.2-8.2c0.5-1.4,1-2.7,1.5-4.1c0.5-1.4,1-2.8,1.5-4.2c0.4-1.2,0.8-2.4,1.2-3.6c0.4-1.2,0.7-2.4,1.1-3.7
				c0.7-2.4,1.5-4.9,2.2-7.3l0.5-1.8c0.2-0.6,0.4-1.2,0.5-1.8c0.3-1.1,0.5-2.3,0.8-3.4c0.5-2.3,1-4.5,1.5-6.8
				c0.6-2.3,0.8-4.3,1.1-6.3c0.3-2,0.6-4.1,0.9-6.1c0.6-4,1.2-8,1.7-12l-1.1-0.3l-0.9-0.3c-0.6-0.2-1.2-0.4-1.8-0.6
				s-1.2-0.4-1.8-0.6l-0.4-0.1l-0.1,0l-0.1,0l-0.2,0l-0.5,0c-0.6-0.1-1.2-0.1-1.8-0.2c-1.2-0.1-2.2-0.2-3.2-0.2
				c-1-0.1-1.9-0.1-2.9,0c-1.8,0.1-3.5,0.4-5,0.9c-1.6,0.5-3.1,1.1-4.6,1.9c-0.4,0.2-0.8,0.4-1.2,0.6c-0.4,0.2-0.8,0.4-1.2,0.7
				c-0.8,0.5-1.6,1-2.4,1.6c-1.7,1.2-3.5,2.8-5.4,4.7c-1.9,1.9-3.8,4.1-5.6,6.5c-6.1,7.7-11.6,14.8-16.6,21.1
				c-3.2,4.1-6.1,7.7-8.6,10.8c-1.2,1.5-2.4,3.1-3.6,4.6c-9.9,12.6-20.8,26.5-31.3,40.1l19.7,7.7c0.5-7.7,3.9-16,7.8-24.3
				c2-4.2,4-8.4,6-12.6c0.5-1.1,1-2.1,1.4-3.2c0.2-0.5,0.5-1.1,0.7-1.6c0.3-0.8,0.6-1.5,0.9-2.2c0.7-1.8,1.3-3.5,1.9-5.3
				c0.3-0.9,0.5-1.7,0.8-2.6c0.3-0.9,0.5-1.7,0.7-2.5c0.2-1.1,0.5-2.2,0.7-3.3l0.5-3.2l0.3-3.1c0.1-1,0.1-2,0.1-2.9
				c0-3.8-0.4-7.3-0.7-11.1l-0.3-2.8l-0.3-2.9c-0.1,0-0.2,0.2-0.2,0.3c-0.1,0.1-0.2,0.1-0.3,0.2c-0.1,0.1-0.2,0.1-0.3,0.1
				c-0.1,0-0.2,0-0.3-0.1c-0.5-0.2-1-0.7-1.6-2.2c-0.1-0.2-0.2-0.3-0.2-0.5l-0.3-0.7l-0.3-0.7l-0.1-0.2l-0.1-0.2l-0.1-0.5l-0.3-1
				l-0.1-0.5c0-0.2-0.1-0.3-0.2-0.6l-0.7-2.8c-1.6,2.1-3.3,4.1-4.9,6.2l-2.4,2.9l-1.7,2.1l-1.7,2.1c-0.6,0.7-1.2,1.4-1.5,1.8
				l-2.5,2.9c-0.5,0.6-0.7,0.6-1,0.8l-0.9,0.5l-0.9,0.5c-0.3,0.1-0.6,0.2-0.9,0.3c-0.6,0.2-1.1,0.4-1.7,0.5l-1.7,0.4
				c0.6-0.1,1.2-0.2,1.8-0.3c0.6-0.1,1.2-0.3,1.8-0.4l0.4-0.1c0.2-0.1,0.3-0.1,0.5-0.2c0.3-0.1,0.6-0.3,0.9-0.4
				c0.3-0.1,0.6-0.3,0.9-0.4c0.1,0,0.4-0.3,0.6-0.5l0.6-0.6c0.8-0.9,1.6-1.7,2.4-2.6c1-1.1,2-2.3,2.9-3.3l0.7-0.8l0.4-0.5l0.5-0.6
				c0.6-0.7,1.3-1.5,1.9-2.2c0.6-0.7,1.2-1.4,1.8-2.1c0.6-0.8,1.3-1.5,1.9-2.2c0.1,0.6,0.2,1.1,0.3,1.7l0.2,0.8l0.1,0.4l0.1,0.3
				c0.2,0.8,0.4,1.6,0.5,2.3c0.2,0.5,0.3,1,0.5,1.6c0.1,0.4,0.3,0.7,0.4,1c0.5,1.1,1,1.5,1.4,1.5c-0.6,0.2-1.2-0.1-2-1.1
				c-0.2-0.3-0.4-0.5-0.6-0.9l-0.3-0.6c-0.1-0.2-0.2-0.4-0.3-0.7c-0.2-0.6-0.4-1.1-0.6-1.7c-0.2-0.8-0.5-1.6-0.7-2.4l-2,2.4
				l-1.8,2.2l-1.8,2.2c-0.3,0.4-0.5,0.6-0.7,0.9l-0.7,0.8c-0.9,1-1.8,2-2.7,3c-0.7,0.7-1.4,1.4-2,2.1c-0.3,0.3-0.7,0.8-1,1l-0.8,0.4
				c-0.5,0.2-1,0.5-1.5,0.7c-0.9,0.2-1.9,0.6-2.8,0.7c-0.5,0.1-0.9,0.2-1.4,0.3c-0.2,0-0.4,0.1-0.7,0.1l-0.5,0.1
				c-0.5,0.1-1.1,0.1-1.6,0.2c-1,0.1-2.1,0.2-3.1,0.3c-4,0.4-7.3,0.5-9.4,0.7c-7.3,0.4-11.9,0.6-14.4,1c-2.5,0.3-2.8,0.7-1.8,1.1
				c2,0.7,9.1,1.6,14.8,2.5c4.1,0.4,3.4,0.9,3.3,1.4c-0.1,0.5,0.3,1.2,6.9,1.2c-4.7,0.3-8.2,0.3-11.8,0.3c-3.5,0-7,0-11.7,0
				c-0.5,0.4,6.6,0.3,13.2,0.2c6.6,0,12.5-0.5,9.2,0.4c-9.2,0.2-19.3,0.3-28.5,0.5c0.8,0.2,3.2,0.3,6.3,0.4c3.1,0.1,7,0.2,10.8,0.2
				c3.8,0,7.4,0,10.1,0c2.6,0,4.3,0,3.9,0.3c-2.6,0.4-9.4,0.3-15.6,0c-6.2-0.3-11.9-0.3-12.7,0.4c-0.2,0.1,2,0.2,4.9,0.2
				c2.9,0,6.4,0.1,8.7,0.1c-7.2,0.1-13.6,0.2-18.5,0.7c-4.9,0.4-8.4,1.2-10.2,1.9c-1.8,0.7-2,1.1-0.5,1c1.5,0,4.9-0.3,11.1-0.3
				c-4.3,0.2-9.4,0.5-13.5,1.7c-2,0.6-3.7,1.5-4.7,2.4c-1,0.9-1.5,1.9-1.8,3.2c0,0,0,0,0,0c0.4-1.3,1.1-2.5,2.4-3.5
				c1.4-1,3.6-1.8,5.3-2.2c-2.1,0.6-3.9,1.3-5,2.2c-1.2,0.9-1.8,1.7-2.3,3c0.3-0.3,0.7-0.7,1-0.9c0.5-0.7,1.1-1.2,2-1.7
				c0.9-0.5,2.2-1.1,3.7-1.6c-1.3,0.4-2.4,0.9-3.3,1.4c-0.9,0.5-1.5,1-1.9,1.6c1-0.5,2.2-1,4.5-1.4c2-0.6,4.6-0.8,7.3-0.9
				c2.6-0.1,5.4,0,8,0.1c5.2,0.3,10,0.6,13.6,0.7c5.3,0.1,10.7,0.1,16.5-0.2c1.4-0.1,2.9-0.2,4.4-0.3c0.8-0.1,1.5-0.2,2.3-0.3
				c0.3,0,1-0.1,0.8-0.1l0.1,0c0.2,0,0.4,0,0.6-0.1c0.3-0.1,0.5-0.2,0.6-0.3c0,0,0-0.1,0,0l0,0.1c0,0.1,0,0.2,0,0.2
				c0,0.1-0.1,0.3-0.1,0.4c-0.1,0.3-0.2,0.5-0.3,0.7c-0.1,0.1-0.1,0.2-0.2,0.3l0,0l-0.2,0.5l-0.5,1.2c-0.3,0.8-0.7,1.5-1.1,2.3
				c-3,6.3-6.7,12.9-10.1,20.3c-3.3,7.4-6.4,15.9-7.2,25.4l-3.5,41l25.5-32.4C3740.6,2150.6,3750.8,2137.7,3760.9,2124.9z"/>
		</g>
	</g>
</g>
<rect x="3294" y="1229.9" class="st4" width="75.1" height="75.1"/>
<rect x="3382.8" y="1229.9" class="st5" width="75.1" height="75.1"/>
<rect x="3471.7" y="1229.9" class="st6" width="75.1" height="75.1"/>
<rect x="3560.5" y="1229.9" class="st0" width="75.1" height="75.1"/>
<rect x="3205.1" y="1229.9" class="st7" width="75.1" height="75.1"/>
<rect x="3294" y="1524.4" class="st8" width="75.1" height="75.1"/>
<rect x="3471.7" y="1524.4" class="st9" width="75.1" height="75.1"/>
<rect x="3560.5" y="1524.4" class="st1" width="75.1" height="75.1"/>
<rect x="3205.1" y="1524.4" class="st10" width="75.1" height="75.1"/>
<rect x="3382.8" y="1524.4" class="st11" width="75.1" height="75.1"/>
<rect x="3471.7" y="1792.7" class="st12" width="75.1" height="75.1"/>
<rect x="3382.8" y="1792.7" class="st2" width="75.1" height="75.1"/>
<rect x="3560.5" y="1792.7" class="st13" width="75.1" height="75.1"/>
<rect x="3205.1" y="1792.7" class="st14" width="75.1" height="75.1"/>
<rect x="3294" y="1792.7" class="st15" width="75.1" height="75.1"/>
<rect x="3471.7" y="2105.1" class="st16" width="75.1" height="75.1"/>
<rect x="3382.1" y="2105.1" class="st17" width="75.1" height="75.1"/>
<rect x="3293.2" y="2105.1" class="st18" width="75.1" height="75.1"/>
<path class="st0" d="M3334.4,341.6l-83.1,37.9c0,0,21.2,104.3,27.1,108.2c5.9,4,66.1,73,66.1,73l-73.5,47.7l52,33.3l119.8,2.9
	l76.3-19l-15.8-95.3l-50.3-30.5l70.9-53.6l-41-146.3l-72.9-38.5L3334.4,341.6z"/>
<path class="st1" d="M3340.9,428.3l46-40.4c0,0,24.8-26.9,28.6-26.6S3475,431,3475,431l-41.7,49l-26,26l12.8,53.4l58.2,33.5
	l-83.5,25.3c0,0-30.7-54.4-29.1-54.4s-33.5-65.5-33.5-65.5l-34.8-33.2L3340.9,428.3z"/>
<polygon class="st3" points="3278.6,416.4 3317.2,396.9 3330.4,412.8 3299.4,436.1 "/>
<polygon class="st13" points="3339.9,407.6 3330.4,374.1 3411.4,288.1 3502.5,412.8 3427.9,356.3 3400,338.6 3375.4,384.2 "/>
<path class="st1" d="M3639.3,341.6l-83.1,37.9c0,0,21.2,104.3,27.1,108.2c5.9,4,66.1,73,66.1,73l-73.5,47.7l52,33.3l119.8,2.9
	l76.3-19l-15.8-95.3l-50.3-30.5l70.9-53.6l-41-146.3l-72.9-38.5L3639.3,341.6z"/>
<path class="st13" d="M3645.7,428.3l46-40.4c0,0,24.8-26.9,28.6-26.6s59.5,69.6,59.5,69.6l-41.7,49l-26,26l12.8,53.4l58.2,33.5
	l-83.5,25.3c0,0-30.7-54.4-29.1-54.4s-33.5-65.5-33.5-65.5l-34.8-33.2L3645.7,428.3z"/>
<polygon class="st0" points="3583.4,416.4 3622,396.9 3635.3,412.8 3604.3,436.1 "/>
<polygon class="st3" points="3644.8,407.6 3635.3,374.1 3716.3,288.1 3807.4,412.8 3732.7,356.3 3704.9,338.6 3680.2,384.2 "/>
<path class="st13" d="M3334.4,765.4l-83.1,37.9c0,0,21.2,104.3,27.1,108.2c5.9,4,66.1,73,66.1,73l-73.5,47.7l52,33.3l119.8,2.9
	l76.3-19l-15.8-95.3l-50.3-30.5l70.9-53.6l-41-146.3l-72.9-38.5L3334.4,765.4z"/>
<path class="st3" d="M3340.9,852.1l46-40.4c0,0,24.8-26.9,28.6-26.6c3.8,0.3,59.5,69.6,59.5,69.6l-41.7,49l-26,26l12.8,53.4
	l58.2,33.5l-83.5,25.3c0,0-30.7-54.4-29.1-54.4s-33.5-65.5-33.5-65.5l-34.8-33.2L3340.9,852.1z"/>
<polygon class="st1" points="3278.6,840.2 3317.2,820.7 3330.4,836.6 3299.4,859.8 "/>
<polygon class="st0" points="3339.9,831.4 3330.4,797.8 3411.4,711.9 3502.5,836.6 3427.9,780.1 3400,762.4 3375.4,808 "/>
<path class="st3" d="M3650,765.4l-83.1,37.9c0,0,21.2,104.3,27.1,108.2c5.9,4,66.1,73,66.1,73l-73.5,47.7l52,33.3l119.8,2.9l76.3-19
	L3819,954l-50.3-30.5l70.9-53.6l-41-146.3l-72.9-38.5L3650,765.4z"/>
<path class="st0" d="M3656.5,852.1l46-40.4c0,0,24.8-26.9,28.6-26.6c3.8,0.3,59.5,69.6,59.5,69.6l-41.7,49l-26,26l12.8,53.4
	l58.2,33.5l-83.5,25.3c0,0-30.7-54.4-29.1-54.4s-33.5-65.5-33.5-65.5l-34.8-33.2L3656.5,852.1z"/>
<polygon class="st13" points="3594.1,840.2 3632.7,820.7 3646,836.6 3615,859.8 "/>
<polygon class="st1" points="3655.5,831.4 3646,797.8 3727,711.9 3818.1,836.6 3743.4,780.1 3715.6,762.4 3690.9,808 "/>
<rect x="3560.5" y="2105.1" class="st3" width="75.1" height="75.1"/>
<rect x="3205.9" y="2105.1" class="st19" width="75.1" height="75.1"/>
<rect x="3342.7" y="18.4" class="st4" width="111.8" height="15.2"/>
<rect x="3475" y="18.4" class="st5" width="111.8" height="15.2"/>
<rect x="3607.4" y="18.4" class="st6" width="111.8" height="15.2"/>
<rect x="3739.7" y="18.4" class="st0" width="111.8" height="15.2"/>
<rect x="3210.4" y="18.4" class="st7" width="111.8" height="15.2"/>
<rect x="3342.7" y="78.2" class="st8" width="111.8" height="15.2"/>
<rect x="3607.4" y="78.2" class="st9" width="111.8" height="15.2"/>
<rect x="3739.7" y="78.2" class="st1" width="111.8" height="15.2"/>
<rect x="3210.4" y="78.2" class="st10" width="111.8" height="15.2"/>
<rect x="3475" y="78.2" class="st11" width="111.8" height="15.2"/>
<rect x="3607.4" y="132.6" class="st12" width="111.8" height="15.2"/>
<rect x="3475" y="132.6" class="st2" width="111.8" height="15.2"/>
<rect x="3739.7" y="132.6" class="st13" width="111.8" height="15.2"/>
<rect x="3210.4" y="132.6" class="st14" width="111.8" height="15.2"/>
<rect x="3342.7" y="132.6" class="st15" width="111.8" height="15.2"/>
<rect x="3607.4" y="196" class="st16" width="111.8" height="15.2"/>
<rect x="3473.9" y="196" class="st17" width="111.8" height="15.2"/>
<rect x="3341.6" y="196" class="st18" width="111.8" height="15.2"/>
<rect x="3739.7" y="196" class="st3" width="111.8" height="15.2"/>
<rect x="3211.5" y="196" class="st19" width="111.8" height="15.2"/>
<rect x="3725.9" y="0.5" class="st20" width="139.4" height="225.2"/>
<path class="st6" d="M2540.9,341.6l-83.1,37.9c0,0,21.2,104.3,27.1,108.2c5.9,4,66.1,73,66.1,73l-73.5,47.7l52,33.3l119.8,2.9
	l76.3-19l-15.8-95.3l-50.3-30.5l70.9-53.6l-41-146.3l-72.9-38.5L2540.9,341.6z"/>
<path class="st9" d="M2547.4,428.3l46-40.4c0,0,24.8-26.9,28.6-26.6c3.8,0.3,59.5,69.6,59.5,69.6l-41.7,49l-26,26l12.8,53.4
	l58.2,33.5l-83.5,25.3c0,0-30.7-54.4-29.1-54.4s-33.5-65.5-33.5-65.5l-34.8-33.2L2547.4,428.3z"/>
<polygon class="st16" points="2485,416.4 2523.6,396.9 2536.9,412.8 2505.9,436.1 "/>
<polygon class="st12" points="2546.4,407.6 2536.9,374.1 2617.9,288.1 2709,412.8 2634.3,356.3 2606.5,338.6 2581.8,384.2 "/>
<path class="st9" d="M2845.8,341.6l-83.1,37.9c0,0,21.2,104.3,27.1,108.2c5.9,4,66.1,73,66.1,73l-73.5,47.7l52,33.3l119.8,2.9
	l76.3-19l-15.8-95.3l-50.3-30.5l70.9-53.6l-41-146.3l-72.9-38.5L2845.8,341.6z"/>
<path class="st12" d="M2852.2,428.3l46-40.4c0,0,24.8-26.9,28.6-26.6c3.8,0.3,59.5,69.6,59.5,69.6l-41.7,49l-26,26l12.8,53.4
	l58.2,33.5l-83.5,25.3c0,0-30.7-54.4-29.1-54.4s-33.5-65.5-33.5-65.5l-34.8-33.2L2852.2,428.3z"/>
<polygon class="st6" points="2789.9,416.4 2828.5,396.9 2841.8,412.8 2810.8,436.1 "/>
<polygon class="st16" points="2851.3,407.6 2841.8,374.1 2922.7,288.1 3013.8,412.8 2939.2,356.3 2911.4,338.6 2886.7,384.2 "/>
<path class="st12" d="M2540.9,765.4l-83.1,37.9c0,0,21.2,104.3,27.1,108.2c5.9,4,66.1,73,66.1,73l-73.5,47.7l52,33.3l119.8,2.9
	l76.3-19l-15.8-95.3l-50.3-30.5l70.9-53.6l-41-146.3l-72.9-38.5L2540.9,765.4z"/>
<path class="st16" d="M2547.4,852.1l46-40.4c0,0,24.8-26.9,28.6-26.6c3.8,0.3,59.5,69.6,59.5,69.6l-41.7,49l-26,26l12.8,53.4
	l58.2,33.5l-83.5,25.3c0,0-30.7-54.4-29.1-54.4s-33.5-65.5-33.5-65.5l-34.8-33.2L2547.4,852.1z"/>
<polygon class="st9" points="2485,840.2 2523.6,820.7 2536.9,836.6 2505.9,859.8 "/>
<polygon class="st6" points="2546.4,831.4 2536.9,797.8 2617.9,711.9 2709,836.6 2634.3,780.1 2606.5,762.4 2581.8,808 "/>
<path class="st16" d="M2856.5,765.4l-83.1,37.9c0,0,21.2,104.3,27.1,108.2c5.9,4,66.1,73,66.1,73l-73.5,47.7l52,33.3l119.8,2.9
	l76.3-19l-15.8-95.3l-50.3-30.5l70.9-53.6l-41-146.3l-72.9-38.5L2856.5,765.4z"/>
<path class="st6" d="M2862.9,852.1l46-40.4c0,0,24.8-26.9,28.6-26.6c3.8,0.3,59.5,69.6,59.5,69.6l-41.7,49l-26,26l12.8,53.4
	l58.2,33.5l-83.5,25.3c0,0-30.7-54.4-29.1-54.4s-33.5-65.5-33.5-65.5l-34.8-33.2L2862.9,852.1z"/>
<polygon class="st12" points="2800.6,840.2 2839.2,820.7 2852.5,836.6 2821.5,859.8 "/>
<polygon class="st9" points="2862,831.4 2852.5,797.8 2933.5,711.9 3024.6,836.6 2949.9,780.1 2922.1,762.4 2897.4,808 "/>
<rect x="2549.2" y="18.4" class="st4" width="111.8" height="15.2"/>
<rect x="2681.5" y="18.4" class="st5" width="111.8" height="15.2"/>
<rect x="2813.8" y="18.4" class="st6" width="111.8" height="15.2"/>
<rect x="2946.1" y="18.4" class="st0" width="111.8" height="15.2"/>
<rect x="2416.8" y="18.4" class="st7" width="111.8" height="15.2"/>
<rect x="2549.2" y="78.2" class="st8" width="111.8" height="15.2"/>
<rect x="2813.8" y="78.2" class="st9" width="111.8" height="15.2"/>
<rect x="2946.1" y="78.2" class="st1" width="111.8" height="15.2"/>
<rect x="2416.8" y="78.2" class="st10" width="111.8" height="15.2"/>
<rect x="2681.5" y="78.2" class="st11" width="111.8" height="15.2"/>
<rect x="2813.8" y="132.6" class="st12" width="111.8" height="15.2"/>
<rect x="2681.5" y="132.6" class="st2" width="111.8" height="15.2"/>
<rect x="2946.1" y="132.6" class="st13" width="111.8" height="15.2"/>
<rect x="2416.8" y="132.6" class="st14" width="111.8" height="15.2"/>
<rect x="2549.2" y="132.6" class="st15" width="111.8" height="15.2"/>
<rect x="2813.8" y="196" class="st16" width="111.8" height="15.2"/>
<rect x="2680.4" y="196" class="st17" width="111.8" height="15.2"/>
<rect x="2548.1" y="196" class="st18" width="111.8" height="15.2"/>
<rect x="2946.1" y="196" class="st3" width="111.8" height="15.2"/>
<rect x="2418" y="196" class="st19" width="111.8" height="15.2"/>
<rect x="2800" y="0.5" class="st20" width="139.4" height="225.2"/>
<path class="st5" d="M1748.9,341.6l-83.1,37.9c0,0,21.2,104.3,27.1,108.2c5.9,4,66.1,73,66.1,73l-73.5,47.7l52,33.3l119.8,2.9
	l76.3-19l-15.8-95.3l-50.3-30.5l70.9-53.6l-41-146.3l-72.9-38.5L1748.9,341.6z"/>
<path class="st11" d="M1755.4,428.3l46-40.4c0,0,24.8-26.9,28.6-26.6c3.8,0.3,59.5,69.6,59.5,69.6l-41.7,49l-26,26l12.8,53.4
	l58.2,33.5l-83.5,25.3c0,0-30.7-54.4-29.1-54.4s-33.5-65.5-33.5-65.5l-34.8-33.2L1755.4,428.3z"/>
<polygon class="st17" points="1693,416.4 1731.6,396.9 1744.9,412.8 1713.9,436.1 "/>
<polygon class="st2" points="1754.4,407.6 1744.9,374.1 1825.9,288.1 1917,412.8 1842.3,356.3 1814.5,338.6 1789.8,384.2 "/>
<path class="st11" d="M2053.8,341.6l-83.1,37.9c0,0,21.2,104.3,27.1,108.2c5.9,4,66.1,73,66.1,73l-73.5,47.7l52,33.3l119.8,2.9
	l76.3-19l-15.8-95.3l-50.3-30.5l70.9-53.6l-41-146.3l-72.9-38.5L2053.8,341.6z"/>
<path class="st2" d="M2060.2,428.3l46-40.4c0,0,24.8-26.9,28.6-26.6c3.8,0.3,59.5,69.6,59.5,69.6l-41.7,49l-26,26l12.8,53.4
	l58.2,33.5l-83.5,25.3c0,0-30.7-54.4-29.1-54.4s-33.5-65.5-33.5-65.5l-34.8-33.2L2060.2,428.3z"/>
<polygon class="st5" points="1997.9,416.4 2036.5,396.9 2049.8,412.8 2018.8,436.1 "/>
<polygon class="st17" points="2059.3,407.6 2049.8,374.1 2130.7,288.1 2221.8,412.8 2147.2,356.3 2119.4,338.6 2094.7,384.2 "/>
<path class="st2" d="M1748.9,765.4l-83.1,37.9c0,0,21.2,104.3,27.1,108.2c5.9,4,66.1,73,66.1,73l-73.5,47.7l52,33.3l119.8,2.9
	l76.3-19l-15.8-95.3l-50.3-30.5l70.9-53.6l-41-146.3l-72.9-38.5L1748.9,765.4z"/>
<path class="st17" d="M1755.4,852.1l46-40.4c0,0,24.8-26.9,28.6-26.6c3.8,0.3,59.5,69.6,59.5,69.6l-41.7,49l-26,26l12.8,53.4
	l58.2,33.5l-83.5,25.3c0,0-30.7-54.4-29.1-54.4s-33.5-65.5-33.5-65.5l-34.8-33.2L1755.4,852.1z"/>
<polygon class="st11" points="1693,840.2 1731.6,820.7 1744.9,836.6 1713.9,859.8 "/>
<polygon class="st5" points="1754.4,831.4 1744.9,797.8 1825.9,711.9 1917,836.6 1842.3,780.1 1814.5,762.4 1789.8,808 "/>
<path class="st17" d="M2064.5,765.4l-83.1,37.9c0,0,21.2,104.3,27.1,108.2c5.9,4,66.1,73,66.1,73l-73.5,47.7l52,33.3l119.8,2.9
	l76.3-19l-15.8-95.3l-50.3-30.5l70.9-53.6l-41-146.3l-72.9-38.5L2064.5,765.4z"/>
<path class="st5" d="M2070.9,852.1l46-40.4c0,0,24.8-26.9,28.6-26.6c3.8,0.3,59.5,69.6,59.5,69.6l-41.7,49l-26,26l12.8,53.4
	l58.2,33.5l-83.5,25.3c0,0-30.7-54.4-29.1-54.4s-33.5-65.5-33.5-65.5l-34.8-33.2L2070.9,852.1z"/>
<polygon class="st2" points="2008.6,840.2 2047.2,820.7 2060.5,836.6 2029.5,859.8 "/>
<polygon class="st11" points="2070,831.4 2060.5,797.8 2141.5,711.9 2232.6,836.6 2157.9,780.1 2130.1,762.4 2105.4,808 "/>
<rect x="1757.2" y="18.4" class="st4" width="111.8" height="15.2"/>
<rect x="1889.5" y="18.4" class="st5" width="111.8" height="15.2"/>
<rect x="2021.8" y="18.4" class="st6" width="111.8" height="15.2"/>
<rect x="2154.1" y="18.4" class="st0" width="111.8" height="15.2"/>
<rect x="1624.8" y="18.4" class="st7" width="111.8" height="15.2"/>
<rect x="1757.2" y="78.2" class="st8" width="111.8" height="15.2"/>
<rect x="2021.8" y="78.2" class="st9" width="111.8" height="15.2"/>
<rect x="2154.1" y="78.2" class="st1" width="111.8" height="15.2"/>
<rect x="1624.8" y="78.2" class="st10" width="111.8" height="15.2"/>
<rect x="1889.5" y="78.2" class="st11" width="111.8" height="15.2"/>
<rect x="2021.8" y="132.6" class="st12" width="111.8" height="15.2"/>
<rect x="1889.5" y="132.6" class="st2" width="111.8" height="15.2"/>
<rect x="2154.1" y="132.6" class="st13" width="111.8" height="15.2"/>
<rect x="1624.8" y="132.6" class="st14" width="111.8" height="15.2"/>
<rect x="1757.2" y="132.6" class="st15" width="111.8" height="15.2"/>
<rect x="2021.8" y="196" class="st16" width="111.8" height="15.2"/>
<rect x="1888.4" y="196" class="st17" width="111.8" height="15.2"/>
<rect x="1756.1" y="196" class="st18" width="111.8" height="15.2"/>
<rect x="2154.1" y="196" class="st3" width="111.8" height="15.2"/>
<rect x="1626" y="196" class="st19" width="111.8" height="15.2"/>
<rect x="1875.7" y="0.5" class="st20" width="139.4" height="225.2"/>
<path class="st4" d="M944.1,341.6l-83.1,37.9c0,0,21.2,104.3,27.1,108.2c5.9,4,66.1,73,66.1,73l-73.5,47.7l52,33.3l119.8,2.9
	l76.3-19l-15.8-95.3l-50.3-30.5l70.9-53.6l-41-146.3l-72.9-38.5L944.1,341.6z"/>
<path class="st8" d="M950.6,428.3l46-40.4c0,0,24.8-26.9,28.6-26.6c3.8,0.3,59.5,69.6,59.5,69.6l-41.7,49l-26,26l12.8,53.4
	l58.2,33.5l-83.5,25.3c0,0-30.7-54.4-29.1-54.4s-33.5-65.5-33.5-65.5l-34.8-33.2L950.6,428.3z"/>
<polygon class="st18" points="888.3,416.4 926.9,396.9 940.1,412.8 909.2,436.1 "/>
<polygon class="st15" points="949.6,407.6 940.1,374.1 1021.1,288.1 1112.2,412.8 1037.6,356.3 1009.7,338.6 985.1,384.2 "/>
<path class="st8" d="M1249,341.6l-83.1,37.9c0,0,21.2,104.3,27.1,108.2c5.9,4,66.1,73,66.1,73l-73.5,47.7l52,33.3l119.8,2.9l76.3-19
	l-15.8-95.3l-50.3-30.5l70.9-53.6l-41-146.3l-72.9-38.5L1249,341.6z"/>
<path class="st15" d="M1255.4,428.3l46-40.4c0,0,24.8-26.9,28.6-26.6c3.8,0.3,59.5,69.6,59.5,69.6l-41.7,49l-26,26l12.8,53.4
	l58.2,33.5l-83.5,25.3c0,0-30.7-54.4-29.1-54.4s-33.5-65.5-33.5-65.5l-34.8-33.2L1255.4,428.3z"/>
<polygon class="st4" points="1193.1,416.4 1231.7,396.9 1245,412.8 1214,436.1 "/>
<polygon class="st18" points="1254.5,407.6 1245,374.1 1326,288.1 1417.1,412.8 1342.4,356.3 1314.6,338.6 1289.9,384.2 "/>
<path class="st15" d="M944.1,765.4l-83.1,37.9c0,0,21.2,104.3,27.1,108.2c5.9,4,66.1,73,66.1,73l-73.5,47.7l52,33.3l119.8,2.9
	l76.3-19l-15.8-95.3l-50.3-30.5l70.9-53.6l-41-146.3l-72.9-38.5L944.1,765.4z"/>
<path class="st18" d="M950.6,852.1l46-40.4c0,0,24.8-26.9,28.6-26.6c3.8,0.3,59.5,69.6,59.5,69.6l-41.7,49l-26,26l12.8,53.4
	l58.2,33.5l-83.5,25.3c0,0-30.7-54.4-29.1-54.4s-33.5-65.5-33.5-65.5l-34.8-33.2L950.6,852.1z"/>
<polygon class="st8" points="888.3,840.2 926.9,820.7 940.1,836.6 909.2,859.8 "/>
<polygon class="st4" points="949.6,831.4 940.1,797.8 1021.1,711.9 1112.2,836.6 1037.6,780.1 1009.7,762.4 985.1,808 "/>
<path class="st18" d="M1259.7,765.4l-83.1,37.9c0,0,21.2,104.3,27.1,108.2c5.9,4,66.1,73,66.1,73l-73.5,47.7l52,33.3l119.8,2.9
	l76.3-19l-15.8-95.3l-50.3-30.5l70.9-53.6l-41-146.3l-72.9-38.5L1259.7,765.4z"/>
<path class="st4" d="M1266.2,852.1l46-40.4c0,0,24.8-26.9,28.6-26.6c3.8,0.3,59.5,69.6,59.5,69.6l-41.7,49l-26,26l12.8,53.4
	l58.2,33.5l-83.5,25.3c0,0-30.7-54.4-29.1-54.4s-33.5-65.5-33.5-65.5l-34.8-33.2L1266.2,852.1z"/>
<polygon class="st15" points="1203.8,840.2 1242.4,820.7 1255.7,836.6 1224.7,859.8 "/>
<polygon class="st8" points="1265.2,831.4 1255.7,797.8 1336.7,711.9 1427.8,836.6 1353.1,780.1 1325.3,762.4 1300.6,808 "/>
<rect x="952.4" y="18.4" class="st4" width="111.8" height="15.2"/>
<rect x="1084.7" y="18.4" class="st5" width="111.8" height="15.2"/>
<rect x="1217.1" y="18.4" class="st6" width="111.8" height="15.2"/>
<rect x="1349.4" y="18.4" class="st0" width="111.8" height="15.2"/>
<rect x="820.1" y="18.4" class="st7" width="111.8" height="15.2"/>
<rect x="952.4" y="78.2" class="st8" width="111.8" height="15.2"/>
<rect x="1217.1" y="78.2" class="st9" width="111.8" height="15.2"/>
<rect x="1349.4" y="78.2" class="st1" width="111.8" height="15.2"/>
<rect x="820.1" y="78.2" class="st10" width="111.8" height="15.2"/>
<rect x="1084.7" y="78.2" class="st11" width="111.8" height="15.2"/>
<rect x="1217.1" y="132.6" class="st12" width="111.8" height="15.2"/>
<rect x="1084.7" y="132.6" class="st2" width="111.8" height="15.2"/>
<rect x="1349.4" y="132.6" class="st13" width="111.8" height="15.2"/>
<rect x="820.1" y="132.6" class="st14" width="111.8" height="15.2"/>
<rect x="952.4" y="132.6" class="st15" width="111.8" height="15.2"/>
<rect x="1217.1" y="196" class="st16" width="111.8" height="15.2"/>
<rect x="1083.6" y="196" class="st17" width="111.8" height="15.2"/>
<rect x="951.3" y="196" class="st18" width="111.8" height="15.2"/>
<rect x="1349.4" y="196" class="st3" width="111.8" height="15.2"/>
<rect x="821.2" y="196" class="st19" width="111.8" height="15.2"/>
<rect x="942.5" y="0.5" class="st20" width="139.4" height="225.2"/>
<path class="st19" d="M2468.7,1556.2l-70.8,32.2c0,0,18,88.8,23.1,92.2s56.3,62.1,56.3,62.1l-62.6,40.6l44.3,28.4l102,2.4l65-16.2
	l-13.5-81.2l-42.8-25.9l60.4-45.6l-34.9-124.6l-62.1-32.8L2468.7,1556.2z"/>
<path class="st18" d="M2474.2,1630.1l39.2-34.4c0,0,21.1-22.9,24.4-22.6s50.6,59.3,50.6,59.3l-35.6,41.7l-62-10.4l50.7,78.1
	l49.6,28.6l-71.1,21.6c0,0-26.1-46.3-24.8-46.3c1.3,0-28.6-55.8-28.6-55.8l-29.6-28.3L2474.2,1630.1z"/>
<polygon class="st3" points="2421.1,1620 2454,1603.3 2465.3,1616.9 2438.9,1636.7 "/>
<polygon class="st17" points="2473.4,1612.4 2465.3,1583.9 2534.3,1510.6 2611.9,1616.9 2548.3,1568.7 2524.6,1553.7 2503.6,1592.5
	"/>
<rect x="2549.2" y="1194.9" class="st4" width="111.8" height="15.2"/>
<rect x="2681.5" y="1194.9" class="st5" width="111.8" height="15.2"/>
<rect x="2813.8" y="1194.9" class="st6" width="111.8" height="15.2"/>
<rect x="2946.1" y="1194.9" class="st0" width="111.8" height="15.2"/>
<rect x="2416.8" y="1194.9" class="st7" width="111.8" height="15.2"/>
<rect x="2549.2" y="1254.7" class="st8" width="111.8" height="15.2"/>
<rect x="2813.8" y="1254.7" class="st9" width="111.8" height="15.2"/>
<rect x="2946.1" y="1254.7" class="st1" width="111.8" height="15.2"/>
<rect x="2416.8" y="1254.7" class="st10" width="111.8" height="15.2"/>
<rect x="2681.5" y="1254.7" class="st11" width="111.8" height="15.2"/>
<rect x="2813.8" y="1309.1" class="st12" width="111.8" height="15.2"/>
<rect x="2681.5" y="1309.1" class="st2" width="111.8" height="15.2"/>
<rect x="2946.1" y="1309.1" class="st13" width="111.8" height="15.2"/>
<rect x="2416.8" y="1309.1" class="st14" width="111.8" height="15.2"/>
<rect x="2549.2" y="1309.1" class="st15" width="111.8" height="15.2"/>
<rect x="2813.8" y="1372.5" class="st16" width="111.8" height="15.2"/>
<rect x="2680.4" y="1372.5" class="st17" width="111.8" height="15.2"/>
<rect x="2548.1" y="1372.5" class="st18" width="111.8" height="15.2"/>
<rect x="2946.1" y="1372.5" class="st3" width="111.8" height="15.2"/>
<rect x="2418" y="1372.5" class="st19" width="111.8" height="15.2"/>
<rect x="2402.3" y="1353.3" class="st21" width="674.3" height="53.9"/>
<path class="st7" d="M142.9,341.6l-83.1,37.9c0,0,21.2,104.3,27.1,108.2c5.9,4,66.1,73,66.1,73l-73.5,47.7l52,33.3l119.8,2.9
	l76.3-19l-15.8-95.3l-50.3-30.5l70.9-53.6l-41-146.3l-72.9-38.5L142.9,341.6z"/>
<path class="st10" d="M149.4,428.3l46-40.4c0,0,24.8-26.9,28.6-26.6s59.5,69.6,59.5,69.6l-41.7,49l-26,26l12.8,53.4l58.2,33.5
	l-83.5,25.3c0,0-30.7-54.4-29.1-54.4c1.6,0-33.5-65.5-33.5-65.5l-34.8-33.2L149.4,428.3z"/>
<polygon class="st19" points="87.1,416.4 125.7,396.9 139,412.8 108,436.1 "/>
<polygon class="st14" points="148.4,407.6 139,374.1 219.9,288.1 311,412.8 236.4,356.3 208.5,338.6 183.9,384.2 "/>
<path class="st10" d="M447.8,341.6l-83.1,37.9c0,0,21.2,104.3,27.1,108.2c5.9,4,66.1,73,66.1,73l-73.5,47.7l52,33.3l119.8,2.9
	l76.3-19l-15.8-95.3l-50.3-30.5l70.9-53.6l-41-146.3l-72.9-38.5L447.8,341.6z"/>
<path class="st14" d="M454.2,428.3l46-40.4c0,0,24.8-26.9,28.6-26.6s59.5,69.6,59.5,69.6l-41.7,49l-26,26l12.8,53.4l58.2,33.5
	L508,618.2c0,0-30.7-54.4-29.1-54.4s-33.5-65.5-33.5-65.5l-34.8-33.2L454.2,428.3z"/>
<polygon class="st7" points="391.9,416.4 430.5,396.9 443.8,412.8 412.8,436.1 "/>
<polygon class="st19" points="453.3,407.6 443.8,374.1 524.8,288.1 615.9,412.8 541.2,356.3 513.4,338.6 488.7,384.2 "/>
<path class="st14" d="M142.9,765.4l-83.1,37.9c0,0,21.2,104.3,27.1,108.2s66.1,73,66.1,73l-73.5,47.7l52,33.3l119.8,2.9l76.3-19
	L311.9,954l-50.3-30.5l70.9-53.6l-41-146.3l-72.9-38.5L142.9,765.4z"/>
<path class="st19" d="M149.4,852.1l46-40.4c0,0,24.8-26.9,28.6-26.6c3.8,0.3,59.5,69.6,59.5,69.6l-41.7,49l-26,26l12.8,53.4
	l58.2,33.5l-83.5,25.3c0,0-30.7-54.4-29.1-54.4c1.6,0-33.5-65.5-33.5-65.5l-34.8-33.2L149.4,852.1z"/>
<polygon class="st10" points="87.1,840.2 125.7,820.7 139,836.6 108,859.8 "/>
<polygon class="st7" points="148.4,831.4 139,797.8 219.9,711.9 311,836.6 236.4,780.1 208.5,762.4 183.9,808 "/>
<path class="st19" d="M458.5,765.4l-83.1,37.9c0,0,21.2,104.3,27.1,108.2s66.1,73,66.1,73l-73.5,47.7l52,33.3l119.8,2.9l76.3-19
	L627.5,954l-50.3-30.5l70.9-53.6l-41-146.3l-72.9-38.5L458.5,765.4z"/>
<path class="st7" d="M465,852.1l46-40.4c0,0,24.8-26.9,28.6-26.6c3.8,0.3,59.5,69.6,59.5,69.6l-41.7,49l-26,26l12.8,53.4l58.2,33.5
	l-83.5,25.3c0,0-30.7-54.4-29.1-54.4s-33.5-65.5-33.5-65.5l-34.8-33.2L465,852.1z"/>
<polygon class="st14" points="402.7,840.2 441.2,820.7 454.5,836.6 423.5,859.8 "/>
<polygon class="st10" points="464,831.4 454.5,797.8 535.5,711.9 626.6,836.6 552,780.1 524.1,762.4 499.4,808 "/>
<rect x="151.2" y="18.4" class="st4" width="111.8" height="15.2"/>
<rect x="283.5" y="18.4" class="st5" width="111.8" height="15.2"/>
<rect x="415.9" y="18.4" class="st6" width="111.8" height="15.2"/>
<rect x="548.2" y="18.4" class="st0" width="111.8" height="15.2"/>
<rect x="18.9" y="18.4" class="st7" width="111.8" height="15.2"/>
<rect x="151.2" y="78.2" class="st8" width="111.8" height="15.2"/>
<rect x="415.9" y="78.2" class="st9" width="111.8" height="15.2"/>
<rect x="548.2" y="78.2" class="st1" width="111.8" height="15.2"/>
<rect x="18.9" y="78.2" class="st10" width="111.8" height="15.2"/>
<rect x="283.5" y="78.2" class="st11" width="111.8" height="15.2"/>
<rect x="415.9" y="132.6" class="st12" width="111.8" height="15.2"/>
<rect x="283.5" y="132.6" class="st2" width="111.8" height="15.2"/>
<rect x="548.2" y="132.6" class="st13" width="111.8" height="15.2"/>
<rect x="18.9" y="132.6" class="st14" width="111.8" height="15.2"/>
<rect x="151.2" y="132.6" class="st15" width="111.8" height="15.2"/>
<rect x="415.9" y="196" class="st16" width="111.8" height="15.2"/>
<rect x="282.4" y="196" class="st17" width="111.8" height="15.2"/>
<rect x="150.1" y="196" class="st18" width="111.8" height="15.2"/>
<rect x="548.2" y="196" class="st3" width="111.8" height="15.2"/>
<rect x="20" y="196" class="st19" width="111.8" height="15.2"/>
<rect x="4.3" y="0.5" class="st20" width="139.4" height="225.2"/>
<polygon class="st16" points="2514.1,1682.5 2545,1730.2 2598.5,1763.5 2605.1,1732.8 2538.6,1678.7 "/>
<path class="st17" d="M2711.7,1782.5l-70.8,32.2c0,0,18,88.8,23.1,92.2c5.1,3.4,56.3,62.1,56.3,62.1l-62.6,40.6l44.3,28.4l102,2.4
	l65-16.2l-13.5-81.2l-42.8-25.9l60.4-45.6l-34.9-124.6l-62.1-32.8L2711.7,1782.5z"/>
<path class="st16" d="M2717.2,1856.3l39.2-34.4c0,0,21.1-22.9,24.4-22.6s50.6,59.3,50.6,59.3l-35.6,41.7l-62-10.4l50.7,78.1
	l49.6,28.6l-71.1,21.6c0,0-26.1-46.3-24.8-46.3c1.3,0-28.6-55.8-28.6-55.8l-29.6-28.3L2717.2,1856.3z"/>
<polygon class="st18" points="2664.1,1846.2 2697,1829.6 2708.3,1843.1 2681.9,1862.9 "/>
<polygon class="st3" points="2716.4,1838.7 2708.3,1810.1 2777.3,1736.9 2854.9,1843.1 2791.3,1795 2767.6,1779.9 2746.6,1818.7 "/>
<polygon class="st19" points="2757.1,1908.7 2788,1956.4 2841.5,1989.7 2848.1,1959.1 2781.6,1904.9 "/>
<path class="st18" d="M2954.7,1556.2l-70.8,32.2c0,0,18,88.8,23.1,92.2c5.1,3.4,56.3,62.1,56.3,62.1l-62.6,40.6l44.3,28.4l102,2.4
	l65-16.2l-13.5-81.2l-42.8-25.9l60.4-45.6l-34.9-124.6l-62.1-32.8L2954.7,1556.2z"/>
<path class="st17" d="M2960.2,1630.1l39.2-34.4c0,0,21.1-22.9,24.4-22.6s50.6,59.3,50.6,59.3l-35.6,41.7l-62-10.4l50.7,78.1
	l49.6,28.6l-71.1,21.6c0,0-26.1-46.3-24.8-46.3c1.3,0-28.6-55.8-28.6-55.8l-29.6-28.3L2960.2,1630.1z"/>
<polygon class="st19" points="2907.1,1620 2940,1603.3 2951.3,1616.9 2924.9,1636.7 "/>
<polygon class="st16" points="2959.4,1612.4 2951.3,1583.9 3020.3,1510.6 3097.9,1616.9 3034.3,1568.7 3010.6,1553.7 2989.6,1592.5
	"/>
<polygon class="st3" points="3000.1,1682.5 3031.1,1730.2 3084.6,1763.5 3091.1,1732.8 3024.6,1678.7 "/>
<path class="st16" d="M2468.7,1954.3l-70.8,32.2c0,0,18,88.8,23.1,92.2s56.3,62.1,56.3,62.1l-62.6,40.6l44.3,28.4l102,2.4l65-16.2
	l-13.5-81.2l-42.8-25.9l60.4-45.6l-34.9-124.6l-62.1-32.8L2468.7,1954.3z"/>
<path class="st3" d="M2474.2,2028.1l39.2-34.4c0,0,21.1-22.9,24.4-22.6s50.6,59.3,50.6,59.3l-35.6,41.7l-62-10.4l50.7,78.1
	l49.6,28.6l-71.1,21.6c0,0-26.1-46.3-24.8-46.3c1.3,0-28.6-55.8-28.6-55.8l-29.6-28.3L2474.2,2028.1z"/>
<polygon class="st17" points="2421.1,2018 2454,2001.4 2465.3,2014.9 2438.9,2034.7 "/>
<polygon class="st19" points="2473.4,2010.5 2465.3,1981.9 2534.3,1908.7 2611.9,2014.9 2548.3,1966.8 2524.6,1951.7 2503.6,1990.5
	"/>
<polygon class="st18" points="2514.1,2080.5 2545,2128.2 2598.5,2161.5 2605.1,2130.8 2538.6,2076.7 "/>
<path class="st3" d="M2954.7,1954.3l-70.8,32.2c0,0,18,88.8,23.1,92.2c5.1,3.4,56.3,62.1,56.3,62.1l-62.6,40.6l44.3,28.4l102,2.4
	l65-16.2l-13.5-81.2l-42.8-25.9l60.4-45.6l-34.9-124.6l-62.1-32.8L2954.7,1954.3z"/>
<path class="st19" d="M2960.2,2028.1l39.2-34.4c0,0,21.1-22.9,24.4-22.6s50.6,59.3,50.6,59.3l-35.6,41.7l-62-10.4l50.7,78.1
	l49.6,28.6l-71.1,21.6c0,0-26.1-46.3-24.8-46.3c1.3,0-28.6-55.8-28.6-55.8l-29.6-28.3L2960.2,2028.1z"/>
<polygon class="st16" points="2907.1,2018 2940,2001.4 2951.3,2014.9 2924.9,2034.7 "/>
<polygon class="st18" points="2959.4,2010.5 2951.3,1981.9 3020.3,1908.7 3097.9,2014.9 3034.3,1966.8 3010.6,1951.7 2989.6,1990.5
	"/>
<polygon class="st17" points="3000.1,2080.5 3031.1,2128.2 3084.6,2161.5 3091.1,2130.8 3024.6,2076.7 "/>
<path class="st14" d="M1676.7,1556.2l-70.8,32.2c0,0,18,88.8,23.1,92.2c5.1,3.4,56.3,62.1,56.3,62.1l-62.6,40.6l44.3,28.4l102,2.4
	l65-16.2l-13.5-81.2l-42.8-25.9l60.4-45.6l-34.9-124.6l-62.1-32.8L1676.7,1556.2z"/>
<path class="st15" d="M1682.2,1630.1l39.2-34.4c0,0,21.1-22.9,24.4-22.6s50.6,59.3,50.6,59.3l-35.6,41.7l-62-10.4l50.7,78.1
	l49.6,28.6l-71.1,21.6c0,0-26.1-46.3-24.8-46.3s-28.6-55.8-28.6-55.8l-29.6-28.3L1682.2,1630.1z"/>
<polygon class="st13" points="1629.1,1620 1662,1603.3 1673.3,1616.9 1646.9,1636.7 "/>
<polygon class="st2" points="1681.4,1612.4 1673.3,1583.9 1742.3,1510.6 1819.9,1616.9 1756.3,1568.7 1732.6,1553.7 1711.6,1592.5
	"/>
<rect x="1757.2" y="1194.9" class="st4" width="111.8" height="15.2"/>
<rect x="1889.5" y="1194.9" class="st5" width="111.8" height="15.2"/>
<rect x="2021.8" y="1194.9" class="st6" width="111.8" height="15.2"/>
<rect x="2154.1" y="1194.9" class="st0" width="111.8" height="15.2"/>
<rect x="1624.8" y="1194.9" class="st7" width="111.8" height="15.2"/>
<rect x="1757.2" y="1254.7" class="st8" width="111.8" height="15.2"/>
<rect x="2021.8" y="1254.7" class="st9" width="111.8" height="15.2"/>
<rect x="2154.1" y="1254.7" class="st1" width="111.8" height="15.2"/>
<rect x="1624.8" y="1254.7" class="st10" width="111.8" height="15.2"/>
<rect x="1889.5" y="1254.7" class="st11" width="111.8" height="15.2"/>
<rect x="2021.8" y="1309.1" class="st12" width="111.8" height="15.2"/>
<rect x="1889.5" y="1309.1" class="st2" width="111.8" height="15.2"/>
<rect x="2154.1" y="1309.1" class="st13" width="111.8" height="15.2"/>
<rect x="1624.8" y="1309.1" class="st14" width="111.8" height="15.2"/>
<rect x="1757.2" y="1309.1" class="st15" width="111.8" height="15.2"/>
<rect x="2021.8" y="1372.5" class="st16" width="111.8" height="15.2"/>
<rect x="1888.4" y="1372.5" class="st17" width="111.8" height="15.2"/>
<rect x="1756.1" y="1372.5" class="st18" width="111.8" height="15.2"/>
<rect x="2154.1" y="1372.5" class="st3" width="111.8" height="15.2"/>
<rect x="1626" y="1372.5" class="st19" width="111.8" height="15.2"/>
<rect x="1610.3" y="1290.3" class="st21" width="674.3" height="53.9"/>
<polygon class="st12" points="1722.1,1682.5 1753,1730.2 1806.5,1763.5 1813.1,1732.8 1746.6,1678.7 "/>
<path class="st2" d="M1919.7,1782.5l-70.8,32.2c0,0,18,88.8,23.1,92.2c5.1,3.4,56.3,62.1,56.3,62.1l-62.6,40.6l44.3,28.4l102,2.4
	l65-16.2l-13.5-81.2l-42.8-25.9l60.4-45.6l-34.9-124.6l-62.1-32.8L1919.7,1782.5z"/>
<path class="st12" d="M1925.2,1856.3l39.2-34.4c0,0,21.1-22.9,24.4-22.6c3.2,0.3,50.6,59.3,50.6,59.3l-35.6,41.7l-62-10.4l50.7,78.1
	l49.6,28.6l-71.1,21.6c0,0-26.1-46.3-24.8-46.3c1.3,0-28.6-55.8-28.6-55.8l-29.6-28.3L1925.2,1856.3z"/>
<polygon class="st15" points="1872.1,1846.2 1905,1829.6 1916.3,1843.1 1889.9,1862.9 "/>
<polygon class="st13" points="1924.4,1838.7 1916.3,1810.1 1985.3,1736.9 2062.9,1843.1 1999.3,1795 1975.6,1779.9 1954.6,1818.7
	"/>
<polygon class="st14" points="1965.1,1908.7 1996,1956.4 2049.5,1989.7 2056.1,1959.1 1989.6,1904.9 "/>
<path class="st15" d="M2162.7,1556.2l-70.8,32.2c0,0,18,88.8,23.1,92.2c5.1,3.4,56.3,62.1,56.3,62.1l-62.6,40.6l44.3,28.4l102,2.4
	l65-16.2l-13.5-81.2l-42.8-25.9l60.4-45.6l-34.9-124.6l-62.1-32.8L2162.7,1556.2z"/>
<path class="st2" d="M2168.2,1630.1l39.2-34.4c0,0,21.1-22.9,24.4-22.6s50.6,59.3,50.6,59.3l-35.6,41.7l-62-10.4l50.7,78.1
	l49.6,28.6l-71.1,21.6c0,0-26.1-46.3-24.8-46.3c1.3,0-28.6-55.8-28.6-55.8l-29.6-28.3L2168.2,1630.1z"/>
<polygon class="st14" points="2115.1,1620 2148,1603.3 2159.3,1616.9 2132.9,1636.7 "/>
<polygon class="st12" points="2167.4,1612.4 2159.3,1583.9 2228.3,1510.6 2305.9,1616.9 2242.3,1568.7 2218.6,1553.7 2197.6,1592.5
	"/>
<polygon class="st13" points="2208.1,1682.5 2239.1,1730.2 2292.6,1763.5 2299.1,1732.8 2232.6,1678.7 "/>
<path class="st12" d="M1676.7,1954.3l-70.8,32.2c0,0,18,88.8,23.1,92.2c5.1,3.4,56.3,62.1,56.3,62.1l-62.6,40.6l44.3,28.4l102,2.4
	l65-16.2l-13.5-81.2l-42.8-25.9l60.4-45.6l-34.9-124.6l-62.1-32.8L1676.7,1954.3z"/>
<path class="st13" d="M1682.2,2028.1l39.2-34.4c0,0,21.1-22.9,24.4-22.6s50.6,59.3,50.6,59.3l-35.6,41.7l-62-10.4l50.7,78.1
	l49.6,28.6l-71.1,21.6c0,0-26.1-46.3-24.8-46.3s-28.6-55.8-28.6-55.8l-29.6-28.3L1682.2,2028.1z"/>
<polygon class="st2" points="1629.1,2018 1662,2001.4 1673.3,2014.9 1646.9,2034.7 "/>
<polygon class="st14" points="1681.4,2010.5 1673.3,1981.9 1742.3,1908.7 1819.9,2014.9 1756.3,1966.8 1732.6,1951.7 1711.6,1990.5
	"/>
<polygon class="st15" points="1722.1,2080.5 1753,2128.2 1806.5,2161.5 1813.1,2130.8 1746.6,2076.7 "/>
<path class="st13" d="M2162.7,1954.3l-70.8,32.2c0,0,18,88.8,23.1,92.2c5.1,3.4,56.3,62.1,56.3,62.1l-62.6,40.6l44.3,28.4l102,2.4
	l65-16.2l-13.5-81.2l-42.8-25.9l60.4-45.6l-34.9-124.6l-62.1-32.8L2162.7,1954.3z"/>
<path class="st14" d="M2168.2,2028.1l39.2-34.4c0,0,21.1-22.9,24.4-22.6s50.6,59.3,50.6,59.3l-35.6,41.7l-62-10.4l50.7,78.1
	l49.6,28.6l-71.1,21.6c0,0-26.1-46.3-24.8-46.3c1.3,0-28.6-55.8-28.6-55.8l-29.6-28.3L2168.2,2028.1z"/>
<polygon class="st12" points="2115.1,2018 2148,2001.4 2159.3,2014.9 2132.9,2034.7 "/>
<polygon class="st15" points="2167.4,2010.5 2159.3,1981.9 2228.3,1908.7 2305.9,2014.9 2242.3,1966.8 2218.6,1951.7 2197.6,1990.5
	"/>
<polygon class="st2" points="2208.1,2080.5 2239.1,2128.2 2292.6,2161.5 2299.1,2130.8 2232.6,2076.7 "/>
<path class="st10" d="M871.9,1556.2l-70.8,32.2c0,0,18,88.8,23.1,92.2c5.1,3.4,56.3,62.1,56.3,62.1l-62.6,40.6l44.3,28.4l102,2.4
	l65-16.2l-13.5-81.2l-42.8-25.9l60.4-45.6l-34.9-124.6l-62.1-32.8L871.9,1556.2z"/>
<path class="st8" d="M877.4,1630.1l39.2-34.4c0,0,21.1-22.9,24.4-22.6s50.6,59.3,50.6,59.3l-35.6,41.7l-62-10.4l50.7,78.1l49.6,28.6
	l-71.1,21.6c0,0-26.1-46.3-24.8-46.3s-28.6-55.8-28.6-55.8l-29.6-28.3L877.4,1630.1z"/>
<polygon class="st1" points="824.4,1620 857.2,1603.3 868.5,1616.9 842.1,1636.7 "/>
<polygon class="st11" points="876.6,1612.4 868.5,1583.9 937.5,1510.6 1015.1,1616.9 951.5,1568.7 927.8,1553.7 906.8,1592.5 "/>
<rect x="952.4" y="1194.9" class="st4" width="111.8" height="15.2"/>
<rect x="1084.7" y="1194.9" class="st5" width="111.8" height="15.2"/>
<rect x="1217.1" y="1194.9" class="st6" width="111.8" height="15.2"/>
<rect x="1349.4" y="1194.9" class="st0" width="111.8" height="15.2"/>
<rect x="820.1" y="1194.9" class="st7" width="111.8" height="15.2"/>
<rect x="952.4" y="1254.7" class="st8" width="111.8" height="15.2"/>
<rect x="1217.1" y="1254.7" class="st9" width="111.8" height="15.2"/>
<rect x="1349.4" y="1254.7" class="st1" width="111.8" height="15.2"/>
<rect x="820.1" y="1254.7" class="st10" width="111.8" height="15.2"/>
<rect x="1084.7" y="1254.7" class="st11" width="111.8" height="15.2"/>
<rect x="1217.1" y="1309.1" class="st12" width="111.8" height="15.2"/>
<rect x="1084.7" y="1309.1" class="st2" width="111.8" height="15.2"/>
<rect x="1349.4" y="1309.1" class="st13" width="111.8" height="15.2"/>
<rect x="820.1" y="1309.1" class="st14" width="111.8" height="15.2"/>
<rect x="952.4" y="1309.1" class="st15" width="111.8" height="15.2"/>
<rect x="1217.1" y="1372.5" class="st16" width="111.8" height="15.2"/>
<rect x="1083.6" y="1372.5" class="st17" width="111.8" height="15.2"/>
<rect x="951.3" y="1372.5" class="st18" width="111.8" height="15.2"/>
<rect x="1349.4" y="1372.5" class="st3" width="111.8" height="15.2"/>
<rect x="821.2" y="1372.5" class="st19" width="111.8" height="15.2"/>
<rect x="805.5" y="1235.4" class="st21" width="674.3" height="53.9"/>
<polygon class="st9" points="917.3,1682.5 948.3,1730.2 1001.8,1763.5 1008.3,1732.8 941.8,1678.7 "/>
<path class="st11" d="M1114.9,1782.5l-70.8,32.2c0,0,18,88.8,23.1,92.2c5.1,3.4,56.3,62.1,56.3,62.1l-62.6,40.6l44.3,28.4l102,2.4
	l65-16.2l-13.5-81.2l-42.8-25.9l60.4-45.6l-34.9-124.6l-62.1-32.8L1114.9,1782.5z"/>
<path class="st9" d="M1120.4,1856.3l39.2-34.4c0,0,21.1-22.9,24.4-22.6s50.6,59.3,50.6,59.3l-35.6,41.7l-62-10.4l50.7,78.1
	l49.6,28.6l-71.1,21.6c0,0-26.1-46.3-24.8-46.3s-28.6-55.8-28.6-55.8l-29.6-28.3L1120.4,1856.3z"/>
<polygon class="st8" points="1067.4,1846.2 1100.2,1829.6 1111.5,1843.1 1085.1,1862.9 "/>
<polygon class="st1" points="1119.6,1838.7 1111.5,1810.1 1180.5,1736.9 1258.1,1843.1 1194.5,1795 1170.8,1779.9 1149.8,1818.7 "/>
<polygon class="st10" points="1160.3,1908.7 1191.3,1956.4 1244.8,1989.7 1251.3,1959.1 1184.8,1904.9 "/>
<path class="st8" d="M1358,1556.2l-70.8,32.2c0,0,18,88.8,23.1,92.2c5.1,3.4,56.3,62.1,56.3,62.1l-62.6,40.6l44.3,28.4l102,2.4
	l65-16.2l-13.5-81.2l-42.8-25.9l60.4-45.6l-34.9-124.6l-62.1-32.8L1358,1556.2z"/>
<path class="st11" d="M1363.4,1630.1l39.2-34.4c0,0,21.1-22.9,24.4-22.6s50.6,59.3,50.6,59.3l-35.6,41.7l-62-10.4l50.7,78.1
	l49.6,28.6l-71.1,21.6c0,0-26.1-46.3-24.8-46.3s-28.6-55.8-28.6-55.8l-29.6-28.3L1363.4,1630.1z"/>
<polygon class="st10" points="1310.4,1620 1343.2,1603.3 1354.6,1616.9 1328.2,1636.7 "/>
<polygon class="st9" points="1362.6,1612.4 1354.6,1583.9 1423.5,1510.6 1501.1,1616.9 1437.5,1568.7 1413.8,1553.7 1392.8,1592.5
	"/>
<polygon class="st1" points="1403.3,1682.5 1434.3,1730.2 1487.8,1763.5 1494.3,1732.8 1427.8,1678.7 "/>
<path class="st9" d="M871.9,1954.3l-70.8,32.2c0,0,18,88.8,23.1,92.2c5.1,3.4,56.3,62.1,56.3,62.1l-62.6,40.6l44.3,28.4l102,2.4
	l65-16.2l-13.5-81.2l-42.8-25.9l60.4-45.6l-34.9-124.6l-62.1-32.8L871.9,1954.3z"/>
<path class="st1" d="M877.4,2028.1l39.2-34.4c0,0,21.1-22.9,24.4-22.6s50.6,59.3,50.6,59.3l-35.6,41.7l-62-10.4l50.7,78.1l49.6,28.6
	l-71.1,21.6c0,0-26.1-46.3-24.8-46.3s-28.6-55.8-28.6-55.8l-29.6-28.3L877.4,2028.1z"/>
<polygon class="st11" points="824.4,2018 857.2,2001.4 868.5,2014.9 842.1,2034.7 "/>
<polygon class="st10" points="876.6,2010.5 868.5,1981.9 937.5,1908.7 1015.1,2014.9 951.5,1966.8 927.8,1951.7 906.8,1990.5 "/>
<polygon class="st8" points="917.3,2080.5 948.3,2128.2 1001.8,2161.5 1008.3,2130.8 941.8,2076.7 "/>
<path class="st1" d="M1358,1954.3l-70.8,32.2c0,0,18,88.8,23.1,92.2c5.1,3.4,56.3,62.1,56.3,62.1l-62.6,40.6l44.3,28.4l102,2.4
	l65-16.2l-13.5-81.2l-42.8-25.9l60.4-45.6l-34.9-124.6l-62.1-32.8L1358,1954.3z"/>
<path class="st10" d="M1363.4,2028.1l39.2-34.4c0,0,21.1-22.9,24.4-22.6s50.6,59.3,50.6,59.3l-35.6,41.7l-62-10.4l50.7,78.1
	l49.6,28.6l-71.1,21.6c0,0-26.1-46.3-24.8-46.3s-28.6-55.8-28.6-55.8l-29.6-28.3L1363.4,2028.1z"/>
<polygon class="st9" points="1310.4,2018 1343.2,2001.4 1354.6,2014.9 1328.2,2034.7 "/>
<polygon class="st8" points="1362.6,2010.5 1354.6,1981.9 1423.5,1908.7 1501.1,2014.9 1437.5,1966.8 1413.8,1951.7 1392.8,1990.5
	"/>
<polygon class="st11" points="1403.3,2080.5 1434.3,2128.2 1487.8,2161.5 1494.3,2130.8 1427.8,2076.7 "/>
<path class="st7" d="M70.8,1556.2L0,1588.5c0,0,18,88.8,23.1,92.2s56.3,62.1,56.3,62.1l-62.6,40.6l44.3,28.4l102,2.4l65-16.2
	l-13.5-81.2l-42.8-25.9l60.4-45.6l-34.9-124.6l-62.1-32.8L70.8,1556.2z"/>
<path class="st4" d="M76.2,1630.1l39.2-34.4c0,0,21.1-22.9,24.4-22.6c3.2,0.3,50.6,59.3,50.6,59.3l-35.6,41.7l-62-10.4l50.7,78.1
	l49.6,28.6l-71.1,21.6c0,0-26.1-46.3-24.8-46.3c1.3,0-28.6-55.8-28.6-55.8l-29.6-28.3L76.2,1630.1z"/>
<polygon class="st0" points="23.2,1620 56,1603.3 67.4,1616.9 41,1636.7 "/>
<polygon class="st5" points="75.4,1612.4 67.4,1583.9 136.3,1510.6 213.9,1616.9 150.3,1568.7 126.6,1553.7 105.6,1592.5 "/>
<rect x="151.2" y="1194.9" class="st4" width="111.8" height="15.2"/>
<rect x="283.5" y="1194.9" class="st5" width="111.8" height="15.2"/>
<rect x="415.9" y="1194.9" class="st6" width="111.8" height="15.2"/>
<rect x="548.2" y="1194.9" class="st0" width="111.8" height="15.2"/>
<rect x="18.9" y="1194.9" class="st7" width="111.8" height="15.2"/>
<rect x="151.2" y="1254.7" class="st8" width="111.8" height="15.2"/>
<rect x="415.9" y="1254.7" class="st9" width="111.8" height="15.2"/>
<rect x="548.2" y="1254.7" class="st1" width="111.8" height="15.2"/>
<rect x="18.9" y="1254.7" class="st10" width="111.8" height="15.2"/>
<rect x="283.5" y="1254.7" class="st11" width="111.8" height="15.2"/>
<rect x="415.9" y="1309.1" class="st12" width="111.8" height="15.2"/>
<rect x="283.5" y="1309.1" class="st2" width="111.8" height="15.2"/>
<rect x="548.2" y="1309.1" class="st13" width="111.8" height="15.2"/>
<rect x="18.9" y="1309.1" class="st14" width="111.8" height="15.2"/>
<rect x="151.2" y="1309.1" class="st15" width="111.8" height="15.2"/>
<rect x="415.9" y="1372.5" class="st16" width="111.8" height="15.2"/>
<rect x="282.4" y="1372.5" class="st17" width="111.8" height="15.2"/>
<rect x="150.1" y="1372.5" class="st18" width="111.8" height="15.2"/>
<rect x="548.2" y="1372.5" class="st3" width="111.8" height="15.2"/>
<rect x="20" y="1372.5" class="st19" width="111.8" height="15.2"/>
<rect x="4.3" y="1177" class="st21" width="674.3" height="53.9"/>
<polygon class="st6" points="116.1,1682.5 147.1,1730.2 200.6,1763.5 207.1,1732.8 140.6,1678.7 "/>
<path class="st5" d="M313.8,1782.5l-70.8,32.2c0,0,18,88.8,23.1,92.2c5.1,3.4,56.3,62.1,56.3,62.1l-62.6,40.6l44.3,28.4l102,2.4
	l65-16.2l-13.5-81.2l-42.8-25.9l60.4-45.6l-34.9-124.6l-62.1-32.8L313.8,1782.5z"/>
<path class="st6" d="M319.2,1856.3l39.2-34.4c0,0,21.1-22.9,24.4-22.6c3.2,0.3,50.6,59.3,50.6,59.3l-35.6,41.7l-62-10.4l50.7,78.1
	l49.6,28.6l-71.1,21.6c0,0-26.1-46.3-24.8-46.3c1.3,0-28.6-55.8-28.6-55.8l-29.6-28.3L319.2,1856.3z"/>
<polygon class="st4" points="266.2,1846.2 299,1829.6 310.4,1843.1 284,1862.9 "/>
<polygon class="st0" points="318.4,1838.7 310.4,1810.1 379.3,1736.9 456.9,1843.1 393.3,1795 369.6,1779.9 348.6,1818.7 "/>
<polygon class="st7" points="359.1,1908.7 390.1,1956.4 443.6,1989.7 450.1,1959.1 383.6,1904.9 "/>
<path class="st4" d="M556.8,1556.2l-70.8,32.2c0,0,18,88.8,23.1,92.2s56.3,62.1,56.3,62.1l-62.6,40.6l44.3,28.4l102,2.4l65-16.2
	l-13.5-81.2l-42.8-25.9l60.4-45.6l-34.9-124.6l-62.1-32.8L556.8,1556.2z"/>
<path class="st5" d="M562.3,1630.1l39.2-34.4c0,0,21.1-22.9,24.4-22.6s50.6,59.3,50.6,59.3l-35.6,41.7l-62-10.4l50.7,78.1l49.6,28.6
	l-71.1,21.6c0,0-26.1-46.3-24.8-46.3s-28.6-55.8-28.6-55.8l-29.6-28.3L562.3,1630.1z"/>
<polygon class="st7" points="509.2,1620 542,1603.3 553.4,1616.9 527,1636.7 "/>
<polygon class="st6" points="561.4,1612.4 553.4,1583.9 622.3,1510.6 699.9,1616.9 636.3,1568.7 612.6,1553.7 591.6,1592.5 "/>
<polygon class="st0" points="602.1,1682.5 633.1,1730.2 686.6,1763.5 693.1,1732.8 626.6,1678.7 "/>
<path class="st6" d="M70.8,1954.3L0,1986.5c0,0,18,88.8,23.1,92.2s56.3,62.1,56.3,62.1l-62.6,40.6l44.3,28.4l102,2.4l65-16.2
	l-13.5-81.2l-42.8-25.9l60.4-45.6l-34.9-124.6l-62.1-32.8L70.8,1954.3z"/>
<path class="st0" d="M76.2,2028.1l39.2-34.4c0,0,21.1-22.9,24.4-22.6c3.2,0.3,50.6,59.3,50.6,59.3l-35.6,41.7l-62-10.4l50.7,78.1
	l49.6,28.6l-71.1,21.6c0,0-26.1-46.3-24.8-46.3c1.3,0-28.6-55.8-28.6-55.8l-29.6-28.3L76.2,2028.1z"/>
<polygon class="st5" points="23.2,2018 56,2001.4 67.4,2014.9 41,2034.7 "/>
<polygon class="st7" points="75.4,2010.5 67.4,1981.9 136.3,1908.7 213.9,2014.9 150.3,1966.8 126.6,1951.7 105.6,1990.5 "/>
<polygon class="st4" points="116.1,2080.5 147.1,2128.2 200.6,2161.5 207.1,2130.8 140.6,2076.7 "/>
<path class="st0" d="M556.8,1954.3l-70.8,32.2c0,0,18,88.8,23.1,92.2s56.3,62.1,56.3,62.1l-62.6,40.6l44.3,28.4l102,2.4l65-16.2
	l-13.5-81.2l-42.8-25.9l60.4-45.6l-34.9-124.6l-62.1-32.8L556.8,1954.3z"/>
<path class="st7" d="M562.3,2028.1l39.2-34.4c0,0,21.1-22.9,24.4-22.6s50.6,59.3,50.6,59.3l-35.6,41.7l-62-10.4l50.7,78.1l49.6,28.6
	l-71.1,21.6c0,0-26.1-46.3-24.8-46.3s-28.6-55.8-28.6-55.8l-29.6-28.3L562.3,2028.1z"/>
<polygon class="st6" points="509.2,2018 542,2001.4 553.4,2014.9 527,2034.7 "/>
<polygon class="st4" points="561.4,2010.5 553.4,1981.9 622.3,1908.7 699.9,2014.9 636.3,1966.8 612.6,1951.7 591.6,1990.5 "/>
<polygon class="st5" points="602.1,2080.5 633.1,2128.2 686.6,2161.5 693.1,2130.8 626.6,2076.7 "/>
</svg>
